<?xml version="1.0" standalone="no"?>
<!DOCTYPE svg PUBLIC "-//W3C//DTD SVG 1.1//EN" "http://www.w3.org/Graphics/SVG/1.1/DTD/svg11.dtd">
<svg viewBox="0 0 600.000000 400.000000" version="1.1" xmlns="http://www.w3.org/2000/svg" xmlns:xlink="http://www.w3.org/1999/xlink">
	<polyline fill="none" stroke="rgb(229,229,229)" stroke-width="1" stroke-opacity="1" points="67.000000,44.000000 67.000000,368.000000"/>
	<polyline fill="none" stroke="rgb(229,229,229)" stroke-width="1" stroke-opacity="1" points="117.100000,44.000000 117.100000,368.000000"/>
	<polyline fill="none" stroke="rgb(229,229,229)" stroke-width="1" stroke-opacity="1" points="167.200000,44.000000 167.200000,368.000000"/>
	<polyline fill="none" stroke="rgb(229,229,229)" stroke-width="1" stroke-opacity="1" points="217.300000,44.000000 217.300000,368.000000"/>
	<polyline fill="none" stroke="rgb(229,229,229)" stroke-width="1" stroke-opacity="1" points="267.400000,44.000000 267.400000,368.000000"/>
	<polyline fill="none" stroke="rgb(229,229,229)" stroke-width="1" stroke-opacity="1" points="317.500000,44.000000 317.500000,368.000000"/>
	<polyline fill="none" stroke="rgb(229,229,229)" stroke-width="1" stroke-opacity="1" points="367.600000,44.000000 367.600000,368.000000"/>
	<polyline fill="none" stroke="rgb(229,229,229)" stroke-width="1" stroke-opacity="1" points="417.700000,44.000000 417.700000,368.000000"/>
	<polyline fill="none" stroke="rgb(229,229,229)" stroke-width="1" stroke-opacity="1" points="467.800000,44.000000 467.800000,368.000000"/>
	<polyline fill="none" stroke="rgb(229,229,229)" stroke-width="1" stroke-opacity="1" points="517.900000,44.000000 517.900000,368.000000"/>
	<polyline fill="none" stroke="rgb(229,229,229)" stroke-width="1" stroke-opacity="1" points="568.000000,44.000000 568.000000,368.000000"/>
	<polyline fill="none" stroke="rgb(229,229,229)" stroke-width="1" stroke-opacity="1" points="67.000000,368.000000 568.000000,368.000000"/>
	<polyline fill="none" stroke="rgb(229,229,229)" stroke-width="1" stroke-opacity="1" points="67.000000,314.000000 568.000000,314.000000"/>
	<polyline fill="none" stroke="rgb(229,229,229)" stroke-width="1" stroke-opacity="1" points="67.000000,260.000000 568.000000,260.000000"/>
	<polyline fill="none" stroke="rgb(229,229,229)" stroke-width="1" stroke-opacity="1" points="67.000000,206.000000 568.000000,206.000000"/>
	<polyline fill="none" stroke="rgb(229,229,229)" stroke-width="1" stroke-opacity="1" points="67.000000,152.000000 568.000000,152.000000"/>
	<polyline fill="none" stroke="rgb(229,229,229)" stroke-width="1" stroke-opacity="1" points="67.000000,98.000000 568.000000,98.000000"/>
	<polyline fill="none" stroke="rgb(229,229,229)" stroke-width="1" stroke-opacity="1" points="67.000000,44.000000 568.000000,44.000000"/>
	<polyline fill="none" stroke="rgb(192,192,192)" stroke-width="1" stroke-opacity="1" points="67.000000,314.000000 568.000000,314.000000"/>
	<polyline fill="none" stroke="rgb(0,0,0)" stroke-width="1" stroke-opacity="1" points="67.000000,368.000000 568.000000,368.000000"/>
	<polyline fill="none" stroke="rgb(0,0,0)" stroke-width="1" stroke-opacity="1" points="568.000000,368.000000 568.000000,44.000000"/>
	<polyline fill="none" stroke="rgb(0,0,0)" stroke-width="1" stroke-opacity="1" points="568.000000,44.000000 67.000000,44.000000"/>
	<polyline fill="none" stroke="rgb(0,0,0)" stroke-width="1" stroke-opacity="1" points="67.000000,44.000000 67.000000,368.000000"/>
	<polyline fill="none" stroke="rgb(0,0,0)" stroke-width="1" stroke-opacity="1" points="67.000000,368.000000 67.000000,373.000000"/>
	<polyline fill="none" stroke="rgb(0,0,0)" stroke-width="1" stroke-opacity="1" points="117.100000,368.000000 117.100000,373.000000"/>
	<polyline fill="none" stroke="rgb(0,0,0)" stroke-width="1" stroke-opacity="1" points="167.200000,368.000000 167.200000,373.000000"/>
	<polyline fill="none" stroke="rgb(0,0,0)" stroke-width="1" stroke-opacity="1" points="217.300000,368.000000 217.300000,373.000000"/>
	<polyline fill="none" stroke="rgb(0,0,0)" stroke-width="1" stroke-opacity="1" points="267.400000,368.000000 267.400000,373.000000"/>
	<polyline fill="none" stroke="rgb(0,0,0)" stroke-width="1" stroke-opacity="1" points="317.500000,368.000000 317.500000,373.000000"/>
	<polyline fill="none" stroke="rgb(0,0,0)" stroke-width="1" stroke-opacity="1" points="367.600000,368.000000 367.600000,373.000000"/>
	<polyline fill="none" stroke="rgb(0,0,0)" stroke-width="1" stroke-opacity="1" points="417.700000,368.000000 417.700000,373.000000"/>
	<polyline fill="none" stroke="rgb(0,0,0)" stroke-width="1" stroke-opacity="1" points="467.800000,368.000000 467.800000,373.000000"/>
	<polyline fill="none" stroke="rgb(0,0,0)" stroke-width="1" stroke-opacity="1" points="517.900000,368.000000 517.900000,373.000000"/>
	<polyline fill="none" stroke="rgb(0,0,0)" stroke-width="1" stroke-opacity="1" points="568.000000,368.000000 568.000000,373.000000"/>
	<polyline fill="none" stroke="rgb(0,0,0)" stroke-width="1" stroke-opacity="1" points="67.000000,368.000000 67.000000,376.000000"/>
	<text fill="rgb(0,0,0)" font-size="11" font-family="Arial" text-anchor="middle" dominant-baseline="central" x="67" y="387">0</text>
	<polyline fill="none" stroke="rgb(0,0,0)" stroke-width="1" stroke-opacity="1" points="167.200000,368.000000 167.200000,376.000000"/>
	<text fill="rgb(0,0,0)" font-size="11" font-family="Arial" text-anchor="middle" dominant-baseline="central" x="167.2" y="387">40</text>
	<polyline fill="none" stroke="rgb(0,0,0)" stroke-width="1" stroke-opacity="1" points="267.400000,368.000000 267.400000,376.000000"/>
	<text fill="rgb(0,0,0)" font-size="11" font-family="Arial" text-anchor="middle" dominant-baseline="central" x="267.4" y="387">80</text>
	<polyline fill="none" stroke="rgb(0,0,0)" stroke-width="1" stroke-opacity="1" points="367.600000,368.000000 367.600000,376.000000"/>
	<text fill="rgb(0,0,0)" font-size="11" font-family="Arial" text-anchor="middle" dominant-baseline="central" x="367.6" y="387">120</text>
	<polyline fill="none" stroke="rgb(0,0,0)" stroke-width="1" stroke-opacity="1" points="467.800000,368.000000 467.800000,376.000000"/>
	<text fill="rgb(0,0,0)" font-size="11" font-family="Arial" text-anchor="middle" dominant-baseline="central" x="467.8" y="387">160</text>
	<polyline fill="none" stroke="rgb(0,0,0)" stroke-width="1" stroke-opacity="1" points="568.000000,368.000000 568.000000,376.000000"/>
	<text fill="rgb(0,0,0)" font-size="11" font-family="Arial" text-anchor="middle" dominant-baseline="central" x="568" y="387">200</text>
	<polyline fill="none" stroke="rgb(0,0,0)" stroke-width="1" stroke-opacity="1" points="62.000000,368.000000 67.000000,368.000000"/>
	<polyline fill="none" stroke="rgb(0,0,0)" stroke-width="1" stroke-opacity="1" points="62.000000,314.000000 67.000000,314.000000"/>
	<polyline fill="none" stroke="rgb(0,0,0)" stroke-width="1" stroke-opacity="1" points="62.000000,260.000000 67.000000,260.000000"/>
	<polyline fill="none" stroke="rgb(0,0,0)" stroke-width="1" stroke-opacity="1" points="62.000000,206.000000 67.000000,206.000000"/>
	<polyline fill="none" stroke="rgb(0,0,0)" stroke-width="1" stroke-opacity="1" points="62.000000,152.000000 67.000000,152.000000"/>
	<polyline fill="none" stroke="rgb(0,0,0)" stroke-width="1" stroke-opacity="1" points="62.000000,98.000000 67.000000,98.000000"/>
	<polyline fill="none" stroke="rgb(0,0,0)" stroke-width="1" stroke-opacity="1" points="62.000000,44.000000 67.000000,44.000000"/>
	<rect fill="none" stroke="none" stroke-dasharray="none" stroke-width="1" stroke-opacity="1" x="-6" y="359" width="63" height="18"/>
	<polyline fill="none" stroke="rgb(0,0,0)" stroke-width="1" stroke-opacity="1" points="59.000000,368.000000 67.000000,368.000000"/>
	<text fill="rgb(0,0,0)" font-size="11" font-family="Arial" text-anchor="end" dominant-baseline="central" x="57" y="368">-2E3</text>
	<polyline fill="none" stroke="rgb(0,0,0)" stroke-width="1" stroke-opacity="1" points="59.000000,314.000000 67.000000,314.000000"/>
	<text fill="rgb(0,0,0)" font-size="11" font-family="Arial" text-anchor="end" dominant-baseline="central" x="57" y="314">0E0</text>
	<polyline fill="none" stroke="rgb(0,0,0)" stroke-width="1" stroke-opacity="1" points="59.000000,260.000000 67.000000,260.000000"/>
	<text fill="rgb(0,0,0)" font-size="11" font-family="Arial" text-anchor="end" dominant-baseline="central" x="57" y="260">2E3</text>
	<polyline fill="none" stroke="rgb(0,0,0)" stroke-width="1" stroke-opacity="1" points="59.000000,206.000000 67.000000,206.000000"/>
	<text fill="rgb(0,0,0)" font-size="11" font-family="Arial" text-anchor="end" dominant-baseline="central" x="57" y="206">4E3</text>
	<polyline fill="none" stroke="rgb(0,0,0)" stroke-width="1" stroke-opacity="1" points="59.000000,152.000000 67.000000,152.000000"/>
	<text fill="rgb(0,0,0)" font-size="11" font-family="Arial" text-anchor="end" dominant-baseline="central" x="57" y="152">6E3</text>
	<polyline fill="none" stroke="rgb(0,0,0)" stroke-width="1" stroke-opacity="1" points="59.000000,98.000000 67.000000,98.000000"/>
	<text fill="rgb(0,0,0)" font-size="11" font-family="Arial" text-anchor="end" dominant-baseline="central" x="57" y="98">8E3</text>
	<polyline fill="none" stroke="rgb(0,0,0)" stroke-width="1" stroke-opacity="1" points="59.000000,44.000000 67.000000,44.000000"/>
	<text fill="rgb(0,0,0)" font-size="11" font-family="Arial" text-anchor="end" dominant-baseline="central" x="57" y="44">1E4</text>
	<clipPath id="clipArea1">
		<rect x="67" y="44" width="501" height="324">
		</rect>
	</clipPath>
	<polyline fill="none" stroke="rgb(28,108,200)" stroke-width="1" stroke-opacity="1" clip-path="url(#clipArea1)" points="67.000000,313.999909 68.002000,313.999909 69.004000,313.999909 70.006000,313.999909 71.008000,313.999909 72.010000,313.999909 73.012000,313.999909 74.014000,313.999909 75.016000,313.999909 76.018000,313.999909 77.020000,313.999909 78.022000,313.999909 79.024000,313.999909 80.026000,313.999909 81.028000,313.999909 82.030000,313.999909 83.032000,313.999909 84.034000,313.999909 85.036000,313.999909 86.038000,313.999909 87.040000,313.999909 88.041999,313.999909 89.044000,313.999909 90.046000,313.999909 91.048001,313.999909 92.050000,313.999909 93.051999,313.999909 94.054000,313.999909 95.056000,313.999909 96.058001,313.999909 97.060000,313.999909 98.061999,313.999909 99.064000,313.999909 100.066000,313.999909 101.068001,313.999909 102.070000,313.999909 103.071999,313.999909 104.074000,313.999909 105.076000,313.999909 106.078001,313.999909 107.080000,313.999909 108.081999,313.999909 109.083998,313.999909 110.086002,313.999909 111.088001,313.999909 112.090000,313.999909 113.091999,313.999909 114.093998,313.999909 115.096002,313.999909 116.098001,313.999909 117.100000,313.999909 118.101999,313.999909 119.103998,313.999909 120.106002,313.999909 121.108001,313.999909 122.110000,313.999909 123.111999,313.999909 124.113998,313.999909 125.116002,313.999909 126.118001,313.999909 127.120000,313.999909 128.121999,313.999909 129.123998,313.999909 130.126002,313.999909 131.128001,313.999909 132.130000,313.999909 133.131999,313.999909 134.133998,313.999909 135.136002,313.999909 136.138001,313.999909 137.140000,313.999909 138.141999,313.999909 139.143998,313.999909 140.146002,313.999909 141.148001,313.999909 142.150000,313.999909 143.151999,313.999909 144.153998,313.999909 145.156002,313.999909 146.158001,313.999909 147.160000,313.999909 148.162004,313.999909 149.163998,313.999909 150.166002,313.999909 151.167996,313.999909 152.170000,313.999909 153.172004,313.999909 154.173998,313.999909 155.176002,313.999909 156.177996,313.999909 157.180000,313.999909 158.182004,313.999909 159.183998,313.999909 160.186002,313.999909 161.187996,313.999909 162.190000,313.999909 163.192004,313.999909 164.193998,313.999909 165.196002,313.999909 166.197996,313.999909 167.200000,313.999909 168.202004,313.999909 169.203998,313.999909 170.206002,313.999909 171.207996,313.999909 172.210000,313.999909 173.212004,313.999909 174.213998,313.999909 175.216002,313.999909 176.217996,313.999909 177.220000,313.999909 178.222004,313.999909 179.223998,313.999909 180.226002,313.999909 181.227996,313.999909 182.230000,313.999909 183.232004,313.999909 184.233998,313.999909 185.236002,313.999909 186.237996,313.999909 187.240000,313.999909 188.242004,313.999909 189.243998,313.999909 190.246002,313.999909 191.247996,313.999909 192.250000,313.999909 193.252004,310.365333 194.253998,307.178423 195.256002,304.160532 196.257996,301.252419 197.260000,298.425950 198.262004,295.664556 199.263998,292.957285 200.266002,290.296355 201.267996,287.675948 202.270000,285.091546 203.272004,282.539542 204.273998,280.016990 205.276002,277.521428 206.277996,275.050783 207.280000,272.603272 208.282004,270.177362 209.283998,267.771696 210.286002,265.385089 211.287996,263.016482 212.290000,260.664934 213.292004,258.329586 214.293998,256.009676 215.296002,253.704498 216.297996,251.413420 217.300000,249.135855 218.302004,246.871257 219.303998,244.619136 220.306002,242.379026 221.307996,240.150504 222.310000,237.933176 223.312004,235.726664 224.313998,233.530620 225.316002,231.344721 226.317996,229.168663 227.320000,227.002157 228.322004,224.844926 229.324008,222.696718 230.325992,220.557291 231.327996,218.426420 232.330000,216.303875 233.332004,214.189464 234.334008,212.082976 235.335992,209.984227 236.337996,207.893045 237.340000,205.809247 238.342004,203.732686 239.344008,201.663191 240.345992,199.600631 241.347996,197.544834 242.350000,195.495695 243.352004,193.453055 244.354008,191.416796 245.355992,189.386813 246.357996,187.362973 247.360000,185.345158 248.362004,183.333263 249.364008,181.327194 250.365992,179.326848 251.367996,177.332104 252.370000,175.342897 253.372004,173.359123 254.374008,171.380700 255.375992,169.407538 256.377996,167.439544 257.380000,165.476652 258.382004,163.518783 259.384008,161.565844 260.385992,159.617797 261.387996,157.674535 262.390000,155.736020 263.392004,153.802158 264.394008,151.872897 265.395992,149.948185 266.397996,148.027941 267.400000,146.112102 268.402004,144.200639 269.404008,142.293460 270.405992,140.390541 271.407996,138.491800 272.410000,136.597212 273.412004,134.706711 274.414008,132.820244 275.415992,130.937759 276.417996,129.059229 277.420000,127.184587 278.422004,125.313809 279.424008,123.446828 280.425992,121.583604 281.427996,119.724110 282.430000,117.868295 283.432004,116.016119 284.434008,114.167555 285.435992,112.322538 286.437996,110.481053 287.440000,108.643049 288.442004,106.808500 289.444008,104.977364 290.445992,103.149617 291.447996,101.325206 292.450000,99.504116 293.452004,97.686296 294.454008,95.871733 295.455992,94.060399 296.457996,92.252243 297.460000,90.447225 298.462004,88.645370 299.464008,86.846601 300.465992,85.050890 301.467996,83.258211 302.470000,81.468564 303.472004,79.681897 304.474008,77.898210 305.475992,76.117449 306.477996,74.339589 307.480000,72.564629 308.482004,70.792517 309.484008,69.023226 310.485992,67.256756 311.487996,65.493081 312.490000,63.732175 313.492004,61.974011 314.494008,60.218563 315.495992,58.465830 316.497996,56.715761 317.500000,54.968328 318.502004,54.968354 319.504008,54.968354 320.505992,54.968354 321.507996,54.968354 322.510000,54.968354 323.512004,54.968354 324.514008,54.968354 325.515992,54.968354 326.517996,54.968354 327.520000,54.968354 328.522004,54.968354 329.524008,54.968354 330.525992,54.968354 331.527996,54.968354 332.530000,54.968354 333.532004,54.968354 334.534008,54.968354 335.535992,54.968354 336.537996,54.968354 337.540000,54.968354 338.542004,54.968354 339.544008,54.968354 340.545992,54.968354 341.547996,54.968354 342.550000,54.968354 343.552004,54.968354 344.554008,54.968354 345.555992,54.968354 346.557996,54.968354 347.560000,54.968354 348.562004,54.968354 349.564008,54.968354 350.565992,54.968354 351.567996,54.968354 352.570000,54.968354 353.572004,54.968354 354.574008,54.968354 355.575992,54.968354 356.577996,54.968354 357.580000,54.968354 358.582004,54.968354 359.584008,54.968354 360.585992,54.968354 361.587996,54.968354 362.590000,54.968354 363.592004,54.968354 364.594008,54.968354 365.595992,54.968354 366.597996,54.968354 367.600000,54.968354 368.602004,54.968354 369.604008,54.968354 370.605992,54.968354 371.607996,54.968354 372.610000,54.968354 373.612004,54.968354 374.614008,54.968354 375.615992,54.968354 376.617996,54.968354 377.620000,54.968354 378.622004,54.968354 379.624008,54.968354 380.625992,54.968354 381.627996,54.968354 382.630000,54.968354 383.632004,54.968354 384.634008,54.968354 385.635992,54.968354 386.637996,54.968354 387.640000,54.968354 388.641985,54.968354 389.644008,54.968354 390.645992,54.968354 391.648015,54.968354 392.650000,54.968354 393.651985,54.968354 394.654008,54.968354 395.655992,54.968354 396.658015,54.968354 397.660000,54.968354 398.661985,54.968354 399.664008,54.968354 400.665992,54.968354 401.668015,54.968354 402.670000,54.968354 403.671985,54.968354 404.674008,54.968354 405.675992,54.968354 406.678015,54.968354 407.680000,54.968354 408.681985,54.968354 409.684008,54.968354 410.685992,54.968354 411.688015,54.968354 412.690000,54.968354 413.691985,54.968354 414.694008,54.968354 415.695992,54.968354 416.698015,54.968354 417.700000,54.968354 418.701985,54.968354 419.704008,54.968354 420.705992,54.968354 421.708015,54.968354 422.710000,54.968354 423.711985,54.968354 424.714008,54.968354 425.715992,54.968354 426.718015,54.968354 427.720000,54.968354 428.721985,54.968354 429.724008,54.968354 430.725992,54.968354 431.728015,54.968354 432.730000,54.968354 433.731985,54.968354 434.734008,54.968354 435.735992,54.968354 436.738015,54.968354 437.740000,54.968354 438.741985,54.968354 439.744008,54.968354 440.745992,54.968354 441.748015,54.968354 442.750000,54.968354 443.751985,54.968354 444.754008,54.968354 445.755992,54.968354 446.758015,54.968354 447.760000,54.968354 448.761985,54.968354 449.764008,54.968354 450.765992,54.968354 451.768015,54.968354 452.770000,54.968354 453.771985,54.968354 454.774008,54.968354 455.775992,54.968354 456.778015,54.968354 457.780000,54.968354 458.781985,54.968354 459.784008,54.968354 460.785992,54.968354 461.788015,54.968354 462.790000,54.968354 463.791985,54.968354 464.794008,54.968354 465.795992,54.968354 466.798015,54.968354 467.800000,54.968354 468.801985,54.968354 469.804008,54.968354 470.805992,54.968354 471.808015,54.968354 472.810000,54.968354 473.811985,54.968354 474.814008,54.968354 475.815992,54.968354 476.818015,54.968354 477.820000,54.968354 478.821985,54.968354 479.824008,54.968354 480.825992,54.968354 481.828015,54.968354 482.830000,54.968354 483.831985,54.968354 484.834008,54.968354 485.835992,54.968354 486.838015,54.968354 487.840000,54.968354 488.841985,54.968354 489.844008,54.968354 490.845992,54.968354 491.848015,54.968354 492.850000,54.968354 493.851985,54.968354 494.854008,54.968354 495.855992,54.968354 496.858015,54.968354 497.860000,54.968354 498.861985,54.968354 499.864008,54.968354 500.865992,54.968354 501.868015,54.968354 502.870000,54.968354 503.871985,54.968354 504.874008,54.968354 505.875992,54.968354 506.878015,54.968354 507.880000,54.968354 508.881985,54.968354 509.884008,54.968354 510.885992,54.968354 511.888015,54.968354 512.890000,54.968354 513.891985,54.968354 514.894008,54.968354 515.895992,54.968354 516.898015,54.968354 517.900000,54.968354 518.901985,54.968354 519.904008,54.968354 520.905992,54.968354 521.908015,54.968354 522.910000,54.968354 523.911985,54.968354 524.914008,54.968354 525.915992,54.968354 526.918015,54.968354 527.920000,54.968354 528.921985,54.968354 529.924008,54.968354 530.925992,54.968354 531.928015,54.968354 532.930000,54.968354 533.931985,54.968354 534.934008,54.968354 535.935992,54.968354 536.938015,54.968354 537.940000,54.968354 538.941985,54.968354 539.944008,54.968354 540.945992,54.968354 541.948015,54.968354 542.950000,54.968354 543.951985,54.968354 544.954008,54.968354 545.955992,54.968354 546.958015,54.968354 547.960000,54.968354 548.961985,54.968354 549.964008,54.968354 550.965992,54.968354 551.968015,54.968354 552.970000,54.968354 553.971985,54.968354 554.974008,54.968354 555.975992,54.968354 556.978015,54.968354 557.980000,54.968354 558.981985,54.968354 559.984008,54.968354 560.985992,54.968354 561.988015,54.968354 562.990000,54.968354 563.991985,54.968354 564.994008,54.968354 565.995992,54.968354 566.998015,54.968354 568.000000,54.968354 568.000000,54.968354"/>
	<rect fill="rgb(255,255,255)" stroke="none" stroke-opacity="0.7" transform="translate(107, 22.5) translate(0, 0) scale(1,-1)" x="-40" y="-11.5" width="80" height="23"/>
	<polyline fill="none" stroke="rgb(28,108,200)" stroke-width="1" stroke-opacity="1" points="67.000000,23.000000 97.000000,23.000000"/>
	<text fill="rgb(0,0,0)" font-size="11" font-family="Arial" text-anchor="start" dominant-baseline="central" x="102" y="23">Pelec</text>
</svg>
