<?xml version="1.0" standalone="no"?>
<!DOCTYPE svg PUBLIC "-//W3C//DTD SVG 1.1//EN" "http://www.w3.org/Graphics/SVG/1.1/DTD/svg11.dtd">
<svg viewBox="0 0 600.000000 400.000000" version="1.1" xmlns="http://www.w3.org/2000/svg" xmlns:xlink="http://www.w3.org/1999/xlink">
	<polyline fill="none" stroke="rgb(229,229,229)" stroke-width="1" stroke-opacity="1" points="49.000000,44.000000 49.000000,368.000000"/>
	<polyline fill="none" stroke="rgb(229,229,229)" stroke-width="1" stroke-opacity="1" points="100.900000,44.000000 100.900000,368.000000"/>
	<polyline fill="none" stroke="rgb(229,229,229)" stroke-width="1" stroke-opacity="1" points="152.800000,44.000000 152.800000,368.000000"/>
	<polyline fill="none" stroke="rgb(229,229,229)" stroke-width="1" stroke-opacity="1" points="204.700000,44.000000 204.700000,368.000000"/>
	<polyline fill="none" stroke="rgb(229,229,229)" stroke-width="1" stroke-opacity="1" points="256.600000,44.000000 256.600000,368.000000"/>
	<polyline fill="none" stroke="rgb(229,229,229)" stroke-width="1" stroke-opacity="1" points="308.500000,44.000000 308.500000,368.000000"/>
	<polyline fill="none" stroke="rgb(229,229,229)" stroke-width="1" stroke-opacity="1" points="360.400000,44.000000 360.400000,368.000000"/>
	<polyline fill="none" stroke="rgb(229,229,229)" stroke-width="1" stroke-opacity="1" points="412.300000,44.000000 412.300000,368.000000"/>
	<polyline fill="none" stroke="rgb(229,229,229)" stroke-width="1" stroke-opacity="1" points="464.200000,44.000000 464.200000,368.000000"/>
	<polyline fill="none" stroke="rgb(229,229,229)" stroke-width="1" stroke-opacity="1" points="516.100000,44.000000 516.100000,368.000000"/>
	<polyline fill="none" stroke="rgb(229,229,229)" stroke-width="1" stroke-opacity="1" points="568.000000,44.000000 568.000000,368.000000"/>
	<polyline fill="none" stroke="rgb(229,229,229)" stroke-width="1" stroke-opacity="1" points="49.000000,368.000000 568.000000,368.000000"/>
	<polyline fill="none" stroke="rgb(229,229,229)" stroke-width="1" stroke-opacity="1" points="49.000000,321.714286 568.000000,321.714286"/>
	<polyline fill="none" stroke="rgb(229,229,229)" stroke-width="1" stroke-opacity="1" points="49.000000,275.428571 568.000000,275.428571"/>
	<polyline fill="none" stroke="rgb(229,229,229)" stroke-width="1" stroke-opacity="1" points="49.000000,229.142857 568.000000,229.142857"/>
	<polyline fill="none" stroke="rgb(229,229,229)" stroke-width="1" stroke-opacity="1" points="49.000000,182.857143 568.000000,182.857143"/>
	<polyline fill="none" stroke="rgb(229,229,229)" stroke-width="1" stroke-opacity="1" points="49.000000,136.571429 568.000000,136.571429"/>
	<polyline fill="none" stroke="rgb(229,229,229)" stroke-width="1" stroke-opacity="1" points="49.000000,90.285714 568.000000,90.285714"/>
	<polyline fill="none" stroke="rgb(229,229,229)" stroke-width="1" stroke-opacity="1" points="49.000000,44.000000 568.000000,44.000000"/>
	<polyline fill="none" stroke="rgb(192,192,192)" stroke-width="1" stroke-opacity="1" points="49.000000,321.714286 568.000000,321.714286"/>
	<polyline fill="none" stroke="rgb(0,0,0)" stroke-width="1" stroke-opacity="1" points="49.000000,368.000000 568.000000,368.000000"/>
	<polyline fill="none" stroke="rgb(0,0,0)" stroke-width="1" stroke-opacity="1" points="568.000000,368.000000 568.000000,44.000000"/>
	<polyline fill="none" stroke="rgb(0,0,0)" stroke-width="1" stroke-opacity="1" points="568.000000,44.000000 49.000000,44.000000"/>
	<polyline fill="none" stroke="rgb(0,0,0)" stroke-width="1" stroke-opacity="1" points="49.000000,44.000000 49.000000,368.000000"/>
	<polyline fill="none" stroke="rgb(0,0,0)" stroke-width="1" stroke-opacity="1" points="49.000000,368.000000 49.000000,373.000000"/>
	<polyline fill="none" stroke="rgb(0,0,0)" stroke-width="1" stroke-opacity="1" points="100.900000,368.000000 100.900000,373.000000"/>
	<polyline fill="none" stroke="rgb(0,0,0)" stroke-width="1" stroke-opacity="1" points="152.800000,368.000000 152.800000,373.000000"/>
	<polyline fill="none" stroke="rgb(0,0,0)" stroke-width="1" stroke-opacity="1" points="204.700000,368.000000 204.700000,373.000000"/>
	<polyline fill="none" stroke="rgb(0,0,0)" stroke-width="1" stroke-opacity="1" points="256.600000,368.000000 256.600000,373.000000"/>
	<polyline fill="none" stroke="rgb(0,0,0)" stroke-width="1" stroke-opacity="1" points="308.500000,368.000000 308.500000,373.000000"/>
	<polyline fill="none" stroke="rgb(0,0,0)" stroke-width="1" stroke-opacity="1" points="360.400000,368.000000 360.400000,373.000000"/>
	<polyline fill="none" stroke="rgb(0,0,0)" stroke-width="1" stroke-opacity="1" points="412.300000,368.000000 412.300000,373.000000"/>
	<polyline fill="none" stroke="rgb(0,0,0)" stroke-width="1" stroke-opacity="1" points="464.200000,368.000000 464.200000,373.000000"/>
	<polyline fill="none" stroke="rgb(0,0,0)" stroke-width="1" stroke-opacity="1" points="516.100000,368.000000 516.100000,373.000000"/>
	<polyline fill="none" stroke="rgb(0,0,0)" stroke-width="1" stroke-opacity="1" points="568.000000,368.000000 568.000000,373.000000"/>
	<polyline fill="none" stroke="rgb(0,0,0)" stroke-width="1" stroke-opacity="1" points="49.000000,368.000000 49.000000,376.000000"/>
	<text fill="rgb(0,0,0)" font-size="11" font-family="Arial" text-anchor="middle" dominant-baseline="central" x="49" y="387">0</text>
	<polyline fill="none" stroke="rgb(0,0,0)" stroke-width="1" stroke-opacity="1" points="152.800000,368.000000 152.800000,376.000000"/>
	<text fill="rgb(0,0,0)" font-size="11" font-family="Arial" text-anchor="middle" dominant-baseline="central" x="152.8" y="387">40</text>
	<polyline fill="none" stroke="rgb(0,0,0)" stroke-width="1" stroke-opacity="1" points="256.600000,368.000000 256.600000,376.000000"/>
	<text fill="rgb(0,0,0)" font-size="11" font-family="Arial" text-anchor="middle" dominant-baseline="central" x="256.6" y="387">80</text>
	<polyline fill="none" stroke="rgb(0,0,0)" stroke-width="1" stroke-opacity="1" points="360.400000,368.000000 360.400000,376.000000"/>
	<text fill="rgb(0,0,0)" font-size="11" font-family="Arial" text-anchor="middle" dominant-baseline="central" x="360.4" y="387">120</text>
	<polyline fill="none" stroke="rgb(0,0,0)" stroke-width="1" stroke-opacity="1" points="464.200000,368.000000 464.200000,376.000000"/>
	<text fill="rgb(0,0,0)" font-size="11" font-family="Arial" text-anchor="middle" dominant-baseline="central" x="464.2" y="387">160</text>
	<polyline fill="none" stroke="rgb(0,0,0)" stroke-width="1" stroke-opacity="1" points="568.000000,368.000000 568.000000,376.000000"/>
	<text fill="rgb(0,0,0)" font-size="11" font-family="Arial" text-anchor="middle" dominant-baseline="central" x="568" y="387">200</text>
	<polyline fill="none" stroke="rgb(0,0,0)" stroke-width="1" stroke-opacity="1" points="44.000000,368.000000 49.000000,368.000000"/>
	<polyline fill="none" stroke="rgb(0,0,0)" stroke-width="1" stroke-opacity="1" points="44.000000,321.714286 49.000000,321.714286"/>
	<polyline fill="none" stroke="rgb(0,0,0)" stroke-width="1" stroke-opacity="1" points="44.000000,275.428571 49.000000,275.428571"/>
	<polyline fill="none" stroke="rgb(0,0,0)" stroke-width="1" stroke-opacity="1" points="44.000000,229.142857 49.000000,229.142857"/>
	<polyline fill="none" stroke="rgb(0,0,0)" stroke-width="1" stroke-opacity="1" points="44.000000,182.857143 49.000000,182.857143"/>
	<polyline fill="none" stroke="rgb(0,0,0)" stroke-width="1" stroke-opacity="1" points="44.000000,136.571429 49.000000,136.571429"/>
	<polyline fill="none" stroke="rgb(0,0,0)" stroke-width="1" stroke-opacity="1" points="44.000000,90.285714 49.000000,90.285714"/>
	<polyline fill="none" stroke="rgb(0,0,0)" stroke-width="1" stroke-opacity="1" points="44.000000,44.000000 49.000000,44.000000"/>
	<rect fill="none" stroke="none" stroke-dasharray="none" stroke-width="1" stroke-opacity="1" x="-24" y="359" width="63" height="18"/>
	<polyline fill="none" stroke="rgb(0,0,0)" stroke-width="1" stroke-opacity="1" points="41.000000,368.000000 49.000000,368.000000"/>
	<text fill="rgb(0,0,0)" font-size="11" font-family="Arial" text-anchor="end" dominant-baseline="central" x="39" y="368">-2</text>
	<polyline fill="none" stroke="rgb(0,0,0)" stroke-width="1" stroke-opacity="1" points="41.000000,321.714286 49.000000,321.714286"/>
	<text fill="rgb(0,0,0)" font-size="11" font-family="Arial" text-anchor="end" dominant-baseline="central" x="39" y="321.714">0</text>
	<polyline fill="none" stroke="rgb(0,0,0)" stroke-width="1" stroke-opacity="1" points="41.000000,275.428571 49.000000,275.428571"/>
	<text fill="rgb(0,0,0)" font-size="11" font-family="Arial" text-anchor="end" dominant-baseline="central" x="39" y="275.429">2</text>
	<polyline fill="none" stroke="rgb(0,0,0)" stroke-width="1" stroke-opacity="1" points="41.000000,229.142857 49.000000,229.142857"/>
	<text fill="rgb(0,0,0)" font-size="11" font-family="Arial" text-anchor="end" dominant-baseline="central" x="39" y="229.143">4</text>
	<polyline fill="none" stroke="rgb(0,0,0)" stroke-width="1" stroke-opacity="1" points="41.000000,182.857143 49.000000,182.857143"/>
	<text fill="rgb(0,0,0)" font-size="11" font-family="Arial" text-anchor="end" dominant-baseline="central" x="39" y="182.857">6</text>
	<polyline fill="none" stroke="rgb(0,0,0)" stroke-width="1" stroke-opacity="1" points="41.000000,136.571429 49.000000,136.571429"/>
	<text fill="rgb(0,0,0)" font-size="11" font-family="Arial" text-anchor="end" dominant-baseline="central" x="39" y="136.571">8</text>
	<polyline fill="none" stroke="rgb(0,0,0)" stroke-width="1" stroke-opacity="1" points="41.000000,90.285714 49.000000,90.285714"/>
	<text fill="rgb(0,0,0)" font-size="11" font-family="Arial" text-anchor="end" dominant-baseline="central" x="39" y="90.2857">10</text>
	<polyline fill="none" stroke="rgb(0,0,0)" stroke-width="1" stroke-opacity="1" points="41.000000,44.000000 49.000000,44.000000"/>
	<text fill="rgb(0,0,0)" font-size="11" font-family="Arial" text-anchor="end" dominant-baseline="central" x="39" y="44">12</text>
	<clipPath id="clipArea1">
		<rect x="49" y="44" width="519" height="324">
		</rect>
	</clipPath>
	<polyline fill="none" stroke="rgb(28,108,200)" stroke-width="1" stroke-opacity="1" clip-path="url(#clipArea1)" points="49.000000,321.714263 50.038000,321.714263 51.076000,321.714263 52.114000,321.714263 53.152000,321.714263 54.190000,321.714263 55.228000,321.714263 56.266000,321.714263 57.304000,321.714263 58.342000,321.714263 59.380000,321.714263 60.418000,321.714263 61.456000,321.714263 62.494000,321.714263 63.532000,321.714263 64.570000,321.714263 65.608000,321.714263 66.646000,321.714263 67.684000,321.714263 68.722000,321.714263 69.760000,321.714263 70.797999,321.714263 71.836000,321.714263 72.874000,321.714263 73.912001,321.714263 74.950000,321.714263 75.987999,321.714263 77.026000,321.714263 78.064000,321.714263 79.102001,321.714263 80.140000,321.714263 81.177999,321.714263 82.216000,321.714263 83.254000,321.714263 84.292001,321.714263 85.330000,321.714263 86.367999,321.714263 87.406000,321.714263 88.444000,321.714263 89.482001,321.714263 90.520000,321.714263 91.557999,321.714263 92.595998,321.714263 93.634002,321.714263 94.672001,321.714263 95.710000,321.714263 96.747999,321.714263 97.785998,321.714263 98.824002,321.714263 99.862001,321.714263 100.900000,321.714263 101.937999,321.714263 102.975998,321.714263 104.014002,321.714263 105.052001,321.714263 106.090000,321.714263 107.127999,321.714263 108.165998,321.714263 109.204002,321.714263 110.242001,321.714263 111.280000,321.714263 112.317999,321.714263 113.355998,321.714263 114.394002,321.714263 115.432001,321.714263 116.470000,321.714263 117.507999,321.714263 118.545998,321.714263 119.584002,321.714263 120.622001,321.714263 121.660000,321.714263 122.697999,321.714263 123.735998,321.714263 124.774002,321.714263 125.812001,321.714263 126.850000,321.714263 127.887999,321.714263 128.925998,321.714263 129.964002,321.714263 131.002001,321.714263 132.040000,321.714263 133.078004,321.714263 134.115998,321.714263 135.154002,321.714263 136.191996,321.714263 137.230000,321.714263 138.268004,321.714263 139.305998,321.714263 140.344002,321.714263 141.381996,321.714263 142.420000,321.714263 143.458004,321.714263 144.495998,321.714263 145.534002,321.714263 146.571996,321.714263 147.610000,321.714263 148.648004,321.714263 149.685998,321.714263 150.724002,321.714263 151.761996,321.714263 152.800000,321.714263 153.838004,321.714263 154.875998,321.714263 155.914002,321.714263 156.951996,321.714263 157.990000,321.714263 159.028004,321.714263 160.065998,321.714263 161.104002,321.714263 162.141996,321.714263 163.180000,321.714263 164.218004,321.714263 165.255998,321.714263 166.294002,321.714263 167.331996,321.714263 168.370000,321.714263 169.408004,321.714263 170.445998,321.714263 171.484002,321.714263 172.521996,321.714263 173.560000,321.714263 174.598004,321.714263 175.635998,321.714263 176.674002,321.714263 177.711996,321.714263 178.750000,321.714263 179.788004,319.862834 180.825998,318.011406 181.864002,316.159977 182.901996,314.308549 183.940000,312.457121 184.978004,310.605692 186.015998,308.754264 187.054002,306.902835 188.091996,305.051407 189.130000,303.199979 190.168004,301.348551 191.205998,299.497121 192.244002,297.645693 193.281996,295.794266 194.320000,293.942837 195.358004,292.091407 196.395998,290.239980 197.434002,288.388551 198.471996,286.537124 199.510000,284.685694 200.548004,282.834268 201.585998,280.982838 202.624002,279.131408 203.661996,277.279982 204.700000,275.428555 205.738004,273.577123 206.775998,271.725696 207.814002,269.874269 208.851996,268.022837 209.890000,266.171410 210.928004,264.319983 211.965998,262.468556 213.004002,260.617124 214.041996,258.765697 215.080000,256.914270 216.118004,255.062838 217.156008,253.211411 218.193992,251.359984 219.231996,249.508558 220.270000,247.657125 221.308004,245.805698 222.346008,243.954272 223.383992,242.102839 224.421996,240.251412 225.460000,238.399986 226.498004,236.548559 227.536008,234.697127 228.573992,232.845700 229.611996,230.994273 230.650000,229.142846 231.688004,227.291419 232.726008,225.439981 233.763992,223.588555 234.801996,221.737128 235.840000,219.885701 236.878004,218.034274 237.916008,216.182847 238.953992,214.331421 239.991996,212.479983 241.030000,210.628556 242.068004,208.777129 243.106008,206.925702 244.143992,205.074276 245.181996,203.222849 246.220000,201.371422 247.258004,199.519984 248.296008,197.668557 249.333992,195.817130 250.371996,193.965704 251.410000,192.114277 252.448004,190.262850 253.486008,188.411423 254.523992,186.559985 255.561996,184.708559 256.600000,182.857132 257.638004,181.005705 258.676008,179.154278 259.713992,177.302851 260.751996,175.451425 261.790000,173.599987 262.828004,171.748560 263.866008,169.897133 264.903992,168.045706 265.941996,166.194280 266.980000,164.342853 268.018004,162.491426 269.056008,160.639988 270.093992,158.788561 271.131996,156.937134 272.170000,155.085708 273.208004,153.234281 274.246008,151.382854 275.283992,149.531427 276.321996,147.679989 277.360000,145.828563 278.398004,143.977136 279.436008,142.125709 280.473992,140.274282 281.511996,138.422855 282.550000,136.571429 283.588004,134.720002 284.626008,132.868575 285.663992,131.017148 286.701996,129.165721 287.740000,127.314272 288.778004,125.462846 289.816008,123.611419 290.853992,121.759992 291.891996,119.908565 292.930000,118.057138 293.968004,116.205712 295.006008,114.354285 296.043992,112.502858 297.081996,110.651431 298.120000,108.800004 299.158004,106.948578 300.196008,105.097151 301.233992,103.245724 302.271996,101.394275 303.310000,99.542848 304.348004,97.691422 305.386008,95.839995 306.423992,93.988568 307.461996,92.137141 308.500000,90.285714 309.538004,90.285714 310.576008,90.285714 311.613992,90.285714 312.651996,90.285714 313.690000,90.285714 314.728004,90.285714 315.766008,90.285714 316.803992,90.285714 317.841996,90.285714 318.880000,90.285714 319.918004,90.285714 320.956008,90.285714 321.993992,90.285714 323.031996,90.285714 324.070000,90.285714 325.108004,90.285714 326.146008,90.285714 327.183992,90.285714 328.221996,90.285714 329.260000,90.285714 330.298004,90.285714 331.336008,90.285714 332.373992,90.285714 333.411996,90.285714 334.450000,90.285714 335.488004,90.285714 336.526008,90.285714 337.563992,90.285714 338.601996,90.285714 339.640000,90.285714 340.678004,90.285714 341.716008,90.285714 342.753992,90.285714 343.791996,90.285714 344.830000,90.285714 345.868004,90.285714 346.906008,90.285714 347.943992,90.285714 348.981996,90.285714 350.020000,90.285714 351.058004,90.285714 352.096008,90.285714 353.133992,90.285714 354.171996,90.285714 355.210000,90.285714 356.248004,90.285714 357.286008,90.285714 358.323992,90.285714 359.361996,90.285714 360.400000,90.285714 361.438004,90.285714 362.476008,90.285714 363.513992,90.285714 364.551996,90.285714 365.590000,90.285714 366.628004,90.285714 367.666008,90.285714 368.703992,90.285714 369.741996,90.285714 370.780000,90.285714 371.818004,90.285714 372.856008,90.285714 373.893992,90.285714 374.931996,90.285714 375.970000,90.285714 377.008004,90.285714 378.046008,90.285714 379.083992,90.285714 380.121996,90.285714 381.160000,90.285714 382.197984,90.285714 383.236008,90.285714 384.273992,90.285714 385.312016,90.285714 386.350000,90.285714 387.387984,90.285714 388.426008,90.285714 389.463992,90.285714 390.502016,90.285714 391.540000,90.285714 392.577984,90.285714 393.616008,90.285714 394.653992,90.285714 395.692016,90.285714 396.730000,90.285714 397.767984,90.285714 398.806008,90.285714 399.843992,90.285714 400.882016,90.285714 401.920000,90.285714 402.957984,90.285714 403.996008,90.285714 405.033992,90.285714 406.072016,90.285714 407.110000,90.285714 408.147984,90.285714 409.186008,90.285714 410.223992,90.285714 411.262016,90.285714 412.300000,90.285714 413.337984,90.285714 414.376008,90.285714 415.413992,90.285714 416.452016,90.285714 417.490000,90.285714 418.527984,90.285714 419.566008,90.285714 420.603992,90.285714 421.642016,90.285714 422.680000,90.285714 423.717984,90.285714 424.756008,90.285714 425.793992,90.285714 426.832016,90.285714 427.870000,90.285714 428.907984,90.285714 429.946008,90.285714 430.983992,90.285714 432.022016,90.285714 433.060000,90.285714 434.097984,90.285714 435.136008,90.285714 436.173992,90.285714 437.212016,90.285714 438.250000,90.285714 439.287984,90.285714 440.326008,90.285714 441.363992,90.285714 442.402016,90.285714 443.440000,90.285714 444.477984,90.285714 445.516008,90.285714 446.553992,90.285714 447.592016,90.285714 448.630000,90.285714 449.667984,90.285714 450.706008,90.285714 451.743992,90.285714 452.782016,90.285714 453.820000,90.285714 454.857984,90.285714 455.896008,90.285714 456.933992,90.285714 457.972016,90.285714 459.010000,90.285714 460.047984,90.285714 461.086008,90.285714 462.123992,90.285714 463.162016,90.285714 464.200000,90.285714 465.237984,90.285714 466.276008,90.285714 467.313992,90.285714 468.352016,90.285714 469.390000,90.285714 470.427984,90.285714 471.466008,90.285714 472.503992,90.285714 473.542016,90.285714 474.580000,90.285714 475.617984,90.285714 476.656008,90.285714 477.693992,90.285714 478.732016,90.285714 479.770000,90.285714 480.807984,90.285714 481.846008,90.285714 482.883992,90.285714 483.922016,90.285714 484.960000,90.285714 485.997984,90.285714 487.036008,90.285714 488.073992,90.285714 489.112016,90.285714 490.150000,90.285714 491.187984,90.285714 492.226008,90.285714 493.263992,90.285714 494.302016,90.285714 495.340000,90.285714 496.377984,90.285714 497.416008,90.285714 498.453992,90.285714 499.492016,90.285714 500.530000,90.285714 501.567984,90.285714 502.606008,90.285714 503.643992,90.285714 504.682016,90.285714 505.720000,90.285714 506.757984,90.285714 507.796008,90.285714 508.833992,90.285714 509.872016,90.285714 510.910000,90.285714 511.947984,90.285714 512.986008,90.285714 514.023992,90.285714 515.062016,90.285714 516.100000,90.285714 517.137984,90.285714 518.176008,90.285714 519.213992,90.285714 520.252016,90.285714 521.290000,90.285714 522.327984,90.285714 523.366008,90.285714 524.403992,90.285714 525.442016,90.285714 526.480000,90.285714 527.517984,90.285714 528.556008,90.285714 529.593992,90.285714 530.632016,90.285714 531.670000,90.285714 532.707984,90.285714 533.746008,90.285714 534.783992,90.285714 535.822016,90.285714 536.860000,90.285714 537.897984,90.285714 538.936008,90.285714 539.973992,90.285714 541.012016,90.285714 542.050000,90.285714 543.087984,90.285714 544.126008,90.285714 545.163992,90.285714 546.202016,90.285714 547.240000,90.285714 548.277984,90.285714 549.316008,90.285714 550.353992,90.285714 551.392016,90.285714 552.430000,90.285714 553.467984,90.285714 554.506008,90.285714 555.543992,90.285714 556.582016,90.285714 557.620000,90.285714 558.657984,90.285714 559.696008,90.285714 560.733992,90.285714 561.772016,90.285714 562.810000,90.285714 563.847984,90.285714 564.886008,90.285714 565.923992,90.285714 566.962016,90.285714 568.000000,90.285714 568.000000,90.285714"/>
	<rect fill="rgb(255,255,255)" stroke="none" stroke-opacity="0.7" transform="translate(86.5, 22.5) translate(0, 0) scale(1,-1)" x="-37.5" y="-11.5" width="75" height="23"/>
	<polyline fill="none" stroke="rgb(28,108,200)" stroke-width="1" stroke-opacity="1" points="49.000000,23.000000 79.000000,23.000000"/>
	<text fill="rgb(0,0,0)" font-size="11" font-family="Arial" text-anchor="start" dominant-baseline="central" x="84" y="23">i_FC</text>
</svg>
