<?xml version="1.0" standalone="no"?>
<!DOCTYPE svg PUBLIC "-//W3C//DTD SVG 1.1//EN" "http://www.w3.org/Graphics/SVG/1.1/DTD/svg11.dtd">
<svg viewBox="0 0 590.000000 364.000000" version="1.1" xmlns="http://www.w3.org/2000/svg" xmlns:xlink="http://www.w3.org/1999/xlink">
	<polyline fill="none" stroke="rgb(229,229,229)" stroke-width="1" stroke-opacity="1" points="98.000000,44.000000 98.000000,332.000000"/>
	<polyline fill="none" stroke="rgb(229,229,229)" stroke-width="1" stroke-opacity="1" points="144.000000,44.000000 144.000000,332.000000"/>
	<polyline fill="none" stroke="rgb(229,229,229)" stroke-width="1" stroke-opacity="1" points="190.000000,44.000000 190.000000,332.000000"/>
	<polyline fill="none" stroke="rgb(229,229,229)" stroke-width="1" stroke-opacity="1" points="236.000000,44.000000 236.000000,332.000000"/>
	<polyline fill="none" stroke="rgb(229,229,229)" stroke-width="1" stroke-opacity="1" points="282.000000,44.000000 282.000000,332.000000"/>
	<polyline fill="none" stroke="rgb(229,229,229)" stroke-width="1" stroke-opacity="1" points="328.000000,44.000000 328.000000,332.000000"/>
	<polyline fill="none" stroke="rgb(229,229,229)" stroke-width="1" stroke-opacity="1" points="374.000000,44.000000 374.000000,332.000000"/>
	<polyline fill="none" stroke="rgb(229,229,229)" stroke-width="1" stroke-opacity="1" points="420.000000,44.000000 420.000000,332.000000"/>
	<polyline fill="none" stroke="rgb(229,229,229)" stroke-width="1" stroke-opacity="1" points="466.000000,44.000000 466.000000,332.000000"/>
	<polyline fill="none" stroke="rgb(229,229,229)" stroke-width="1" stroke-opacity="1" points="512.000000,44.000000 512.000000,332.000000"/>
	<polyline fill="none" stroke="rgb(229,229,229)" stroke-width="1" stroke-opacity="1" points="558.000000,44.000000 558.000000,332.000000"/>
	<polyline fill="none" stroke="rgb(229,229,229)" stroke-width="1" stroke-opacity="1" points="98.000000,332.000000 558.000000,332.000000"/>
	<polyline fill="none" stroke="rgb(229,229,229)" stroke-width="1" stroke-opacity="1" points="98.000000,284.000000 558.000000,284.000000"/>
	<polyline fill="none" stroke="rgb(229,229,229)" stroke-width="1" stroke-opacity="1" points="98.000000,236.000000 558.000000,236.000000"/>
	<polyline fill="none" stroke="rgb(229,229,229)" stroke-width="1" stroke-opacity="1" points="98.000000,188.000000 558.000000,188.000000"/>
	<polyline fill="none" stroke="rgb(229,229,229)" stroke-width="1" stroke-opacity="1" points="98.000000,140.000000 558.000000,140.000000"/>
	<polyline fill="none" stroke="rgb(229,229,229)" stroke-width="1" stroke-opacity="1" points="98.000000,92.000000 558.000000,92.000000"/>
	<polyline fill="none" stroke="rgb(229,229,229)" stroke-width="1" stroke-opacity="1" points="98.000000,44.000000 558.000000,44.000000"/>
	<polyline fill="none" stroke="rgb(192,192,192)" stroke-width="1" stroke-opacity="1" points="98.000000,284.000000 558.000000,284.000000"/>
	<polyline fill="none" stroke="rgb(0,0,0)" stroke-width="1" stroke-opacity="1" points="98.000000,332.000000 558.000000,332.000000"/>
	<polyline fill="none" stroke="rgb(0,0,0)" stroke-width="1" stroke-opacity="1" points="558.000000,332.000000 558.000000,44.000000"/>
	<polyline fill="none" stroke="rgb(0,0,0)" stroke-width="1" stroke-opacity="1" points="558.000000,44.000000 98.000000,44.000000"/>
	<polyline fill="none" stroke="rgb(0,0,0)" stroke-width="1" stroke-opacity="1" points="98.000000,44.000000 98.000000,332.000000"/>
	<polyline fill="none" stroke="rgb(0,0,0)" stroke-width="1" stroke-opacity="1" points="98.000000,332.000000 98.000000,337.000000"/>
	<polyline fill="none" stroke="rgb(0,0,0)" stroke-width="1" stroke-opacity="1" points="144.000000,332.000000 144.000000,337.000000"/>
	<polyline fill="none" stroke="rgb(0,0,0)" stroke-width="1" stroke-opacity="1" points="190.000000,332.000000 190.000000,337.000000"/>
	<polyline fill="none" stroke="rgb(0,0,0)" stroke-width="1" stroke-opacity="1" points="236.000000,332.000000 236.000000,337.000000"/>
	<polyline fill="none" stroke="rgb(0,0,0)" stroke-width="1" stroke-opacity="1" points="282.000000,332.000000 282.000000,337.000000"/>
	<polyline fill="none" stroke="rgb(0,0,0)" stroke-width="1" stroke-opacity="1" points="328.000000,332.000000 328.000000,337.000000"/>
	<polyline fill="none" stroke="rgb(0,0,0)" stroke-width="1" stroke-opacity="1" points="374.000000,332.000000 374.000000,337.000000"/>
	<polyline fill="none" stroke="rgb(0,0,0)" stroke-width="1" stroke-opacity="1" points="420.000000,332.000000 420.000000,337.000000"/>
	<polyline fill="none" stroke="rgb(0,0,0)" stroke-width="1" stroke-opacity="1" points="466.000000,332.000000 466.000000,337.000000"/>
	<polyline fill="none" stroke="rgb(0,0,0)" stroke-width="1" stroke-opacity="1" points="512.000000,332.000000 512.000000,337.000000"/>
	<polyline fill="none" stroke="rgb(0,0,0)" stroke-width="1" stroke-opacity="1" points="558.000000,332.000000 558.000000,337.000000"/>
	<polyline fill="none" stroke="rgb(0,0,0)" stroke-width="1" stroke-opacity="1" points="98.000000,332.000000 98.000000,340.000000"/>
	<text fill="rgb(0,0,0)" font-size="11" font-family="Arial" text-anchor="middle" dominant-baseline="central" x="98" y="351">0</text>
	<polyline fill="none" stroke="rgb(0,0,0)" stroke-width="1" stroke-opacity="1" points="190.000000,332.000000 190.000000,340.000000"/>
	<text fill="rgb(0,0,0)" font-size="11" font-family="Arial" text-anchor="middle" dominant-baseline="central" x="190" y="351">20</text>
	<polyline fill="none" stroke="rgb(0,0,0)" stroke-width="1" stroke-opacity="1" points="282.000000,332.000000 282.000000,340.000000"/>
	<text fill="rgb(0,0,0)" font-size="11" font-family="Arial" text-anchor="middle" dominant-baseline="central" x="282" y="351">40</text>
	<polyline fill="none" stroke="rgb(0,0,0)" stroke-width="1" stroke-opacity="1" points="374.000000,332.000000 374.000000,340.000000"/>
	<text fill="rgb(0,0,0)" font-size="11" font-family="Arial" text-anchor="middle" dominant-baseline="central" x="374" y="351">60</text>
	<polyline fill="none" stroke="rgb(0,0,0)" stroke-width="1" stroke-opacity="1" points="466.000000,332.000000 466.000000,340.000000"/>
	<text fill="rgb(0,0,0)" font-size="11" font-family="Arial" text-anchor="middle" dominant-baseline="central" x="466" y="351">80</text>
	<polyline fill="none" stroke="rgb(0,0,0)" stroke-width="1" stroke-opacity="1" points="558.000000,332.000000 558.000000,340.000000"/>
	<text fill="rgb(0,0,0)" font-size="11" font-family="Arial" text-anchor="middle" dominant-baseline="central" x="558" y="351">100</text>
	<polyline fill="none" stroke="rgb(0,0,0)" stroke-width="1" stroke-opacity="1" points="93.000000,332.000000 98.000000,332.000000"/>
	<polyline fill="none" stroke="rgb(0,0,0)" stroke-width="1" stroke-opacity="1" points="93.000000,284.000000 98.000000,284.000000"/>
	<polyline fill="none" stroke="rgb(0,0,0)" stroke-width="1" stroke-opacity="1" points="93.000000,236.000000 98.000000,236.000000"/>
	<polyline fill="none" stroke="rgb(0,0,0)" stroke-width="1" stroke-opacity="1" points="93.000000,188.000000 98.000000,188.000000"/>
	<polyline fill="none" stroke="rgb(0,0,0)" stroke-width="1" stroke-opacity="1" points="93.000000,140.000000 98.000000,140.000000"/>
	<polyline fill="none" stroke="rgb(0,0,0)" stroke-width="1" stroke-opacity="1" points="93.000000,92.000000 98.000000,92.000000"/>
	<polyline fill="none" stroke="rgb(0,0,0)" stroke-width="1" stroke-opacity="1" points="93.000000,44.000000 98.000000,44.000000"/>
	<rect fill="none" stroke="none" stroke-dasharray="none" stroke-width="1" stroke-opacity="1" x="25" y="323" width="63" height="18"/>
	<polyline fill="none" stroke="rgb(0,0,0)" stroke-width="1" stroke-opacity="1" points="90.000000,332.000000 98.000000,332.000000"/>
	<text fill="rgb(0,0,0)" font-size="11" font-family="Arial" text-anchor="end" dominant-baseline="central" x="88" y="332">-2E3</text>
	<polyline fill="none" stroke="rgb(0,0,0)" stroke-width="1" stroke-opacity="1" points="90.000000,284.000000 98.000000,284.000000"/>
	<text fill="rgb(0,0,0)" font-size="11" font-family="Arial" text-anchor="end" dominant-baseline="central" x="88" y="284">0E0</text>
	<polyline fill="none" stroke="rgb(0,0,0)" stroke-width="1" stroke-opacity="1" points="90.000000,236.000000 98.000000,236.000000"/>
	<text fill="rgb(0,0,0)" font-size="11" font-family="Arial" text-anchor="end" dominant-baseline="central" x="88" y="236">2E3</text>
	<polyline fill="none" stroke="rgb(0,0,0)" stroke-width="1" stroke-opacity="1" points="90.000000,188.000000 98.000000,188.000000"/>
	<text fill="rgb(0,0,0)" font-size="11" font-family="Arial" text-anchor="end" dominant-baseline="central" x="88" y="188">4E3</text>
	<polyline fill="none" stroke="rgb(0,0,0)" stroke-width="1" stroke-opacity="1" points="90.000000,140.000000 98.000000,140.000000"/>
	<text fill="rgb(0,0,0)" font-size="11" font-family="Arial" text-anchor="end" dominant-baseline="central" x="88" y="140">6E3</text>
	<polyline fill="none" stroke="rgb(0,0,0)" stroke-width="1" stroke-opacity="1" points="90.000000,92.000000 98.000000,92.000000"/>
	<text fill="rgb(0,0,0)" font-size="11" font-family="Arial" text-anchor="end" dominant-baseline="central" x="88" y="92">8E3</text>
	<polyline fill="none" stroke="rgb(0,0,0)" stroke-width="1" stroke-opacity="1" points="90.000000,44.000000 98.000000,44.000000"/>
	<text fill="rgb(0,0,0)" font-size="11" font-family="Arial" text-anchor="end" dominant-baseline="central" x="88" y="44">1E4</text>
	<text fill="rgb(0,0,0)" font-size="11" font-family="Arial" text-anchor="middle" dominant-baseline="central" transform="translate(31, 188) rotate(-90)">[Output power of Fuelcell (W)]</text>
	<clipPath id="clipArea1">
		<rect x="98" y="44" width="460" height="288">
		</rect>
	</clipPath>
	<polyline fill="none" stroke="rgb(28,108,200)" stroke-width="1" stroke-opacity="1" clip-path="url(#clipArea1)" points="98.000000,283.999919 98.920000,283.999919 99.840000,283.999919 100.760000,283.999919 101.680000,283.999919 102.600000,283.999919 103.520000,283.999919 104.440000,283.999919 105.360000,283.999919 106.280000,283.999919 107.200000,283.999919 108.120000,283.999919 109.040000,283.999919 109.960000,283.999919 110.880000,283.999919 111.800000,283.999919 112.720000,283.999919 113.640000,283.999919 114.560000,283.999919 115.480000,283.999919 116.400000,283.999919 117.319999,283.999919 118.240000,283.999919 119.160000,283.999919 120.080001,283.999919 121.000000,283.999919 121.919999,283.999919 122.840000,283.999919 123.760000,283.999919 124.680001,283.999919 125.600000,283.999919 126.519999,283.999919 127.440000,283.999919 128.360000,283.999919 129.280001,283.999919 130.200000,283.999919 131.119999,283.999919 132.040000,283.999919 132.960000,283.999919 133.880001,283.999919 134.800000,283.999919 135.719999,283.999919 136.639998,283.999919 137.560002,283.999919 138.480001,283.999919 139.400000,283.999919 140.319999,283.999919 141.239998,283.999919 142.160002,283.999919 143.080001,283.999919 144.000000,283.999919 144.919999,283.999919 145.839998,283.999919 146.760002,283.999919 147.680001,283.999919 148.600000,283.999919 149.519999,283.999919 150.439998,283.999919 151.360002,283.999919 152.280001,283.999919 153.200000,283.999919 154.119999,283.999919 155.039998,283.999919 155.960002,283.999919 156.880001,283.999919 157.800000,283.999919 158.719999,283.999919 159.639998,283.999919 160.560002,283.999919 161.480001,283.999919 162.400000,283.999919 163.319999,283.999919 164.239998,283.999919 165.160002,283.999919 166.080001,283.999919 167.000000,283.999919 167.919999,283.999919 168.839998,283.999919 169.760002,283.999919 170.680001,283.999919 171.600000,283.999919 172.520004,283.999919 173.439998,283.999919 174.360002,283.999919 175.279996,283.999919 176.200000,283.999919 177.120004,283.999919 178.039998,283.999919 178.960002,283.999919 179.879996,283.999919 180.800000,283.999919 181.720004,283.999919 182.639998,283.999919 183.560002,283.999919 184.479996,283.999919 185.400000,283.999919 186.320004,283.999919 187.239998,283.999919 188.160002,283.999919 189.079996,283.999919 190.000000,283.999919 190.920004,283.999919 191.839998,283.999919 192.760002,283.999919 193.679996,283.999919 194.600000,283.999919 195.520004,283.999919 196.439998,283.999919 197.360002,283.999919 198.279996,283.999919 199.200000,283.999919 200.120004,283.999919 201.039998,283.999919 201.960002,283.999919 202.879996,283.999919 203.800000,283.999919 204.720004,283.999919 205.639998,283.999919 206.560002,283.999919 207.479996,283.999919 208.400000,283.999919 209.320004,283.999919 210.239998,283.999919 211.160002,283.999919 212.079996,283.999919 213.000000,283.999919 213.920004,283.999919 214.839998,283.999919 215.760002,283.999919 216.679996,283.999919 217.600000,283.999919 218.520004,283.999919 219.439998,283.999919 220.360002,283.999919 221.279996,283.999919 222.200000,283.999919 223.120004,283.999919 224.039998,283.999919 224.960002,283.999919 225.879996,283.999919 226.800000,283.999919 227.720004,283.999919 228.639998,283.999919 229.560002,283.999919 230.479996,283.999919 231.400000,283.999919 232.320004,283.999919 233.239998,283.999919 234.160002,283.999919 235.079996,283.999919 236.000000,283.999919 236.920004,283.999919 237.839998,283.999919 238.760002,283.999919 239.679996,283.999919 240.600000,283.999919 241.520004,283.999919 242.439998,283.999919 243.360002,283.999919 244.279996,283.999919 245.200000,283.999919 246.120004,283.999919 247.040007,283.999919 247.959993,283.999919 248.879996,283.999919 249.800000,283.999919 250.720004,283.999919 251.640007,283.999919 252.559993,283.999919 253.479996,283.999919 254.400000,283.999919 255.320004,283.999919 256.240007,283.999919 257.159993,283.999919 258.079996,283.999919 259.000000,283.999919 259.920004,283.999919 260.840007,283.999919 261.759993,283.999919 262.679996,283.999919 263.600000,283.999919 264.520004,283.999919 265.440007,283.999919 266.359993,283.999919 267.279996,283.999919 268.200000,283.999919 269.120004,283.999919 270.040007,283.999919 270.959993,283.999919 271.879996,283.999919 272.800000,283.999919 273.720004,283.999919 274.640007,283.999919 275.559993,283.999919 276.479996,283.999919 277.400000,283.999919 278.320004,283.999919 279.240007,283.999919 280.159993,283.999919 281.079996,283.999919 282.000000,283.999919 282.920004,283.999919 283.840007,283.999919 284.759993,283.999919 285.679996,283.999919 286.600000,283.999919 287.520004,283.999919 288.440007,283.999919 289.359993,283.999919 290.279996,283.999919 291.200000,283.999919 292.120004,283.999919 293.040007,283.999919 293.959993,283.999919 294.879996,283.999919 295.800000,283.999919 296.720004,283.999919 297.640007,283.999919 298.559993,283.999919 299.479996,283.999919 300.400000,283.999919 301.320004,283.999919 302.240007,283.999919 303.159993,283.999919 304.079996,283.999919 305.000000,283.999919 305.920004,283.999919 306.840007,283.999919 307.759993,283.999919 308.679996,283.999919 309.600000,283.999919 310.520004,283.999919 311.440007,283.999919 312.359993,283.999919 313.279996,283.999919 314.200000,283.999919 315.120004,283.999919 316.040007,283.999919 316.959993,283.999919 317.879996,283.999919 318.800000,283.999919 319.720004,283.999919 320.640007,283.999919 321.559993,283.999919 322.479996,283.999919 323.400000,283.999919 324.320004,283.999919 325.240007,283.999919 326.159993,283.999919 327.079996,283.999919 328.000000,283.999919 328.920004,282.285085 329.840007,280.769185 330.759993,279.328391 331.679996,277.936376 332.600000,276.580636 333.520004,275.253806 334.440007,273.951020 335.359993,272.668817 336.279996,271.404613 337.200000,270.156400 338.120004,268.922576 339.040007,267.701828 339.959993,266.493065 340.879996,265.295365 341.800000,264.107936 342.720004,262.930093 343.640007,261.761239 344.559993,260.600842 345.479996,259.448435 346.400000,258.303597 347.320004,257.165949 348.240007,256.035148 349.159993,254.910887 350.079996,253.792880 351.000000,252.680864 351.920004,251.574603 352.840007,250.473872 353.759993,249.378474 354.679996,248.288211 355.600000,247.202908 356.520004,246.122404 357.440007,245.046544 358.359993,243.975178 359.279996,242.908174 360.200000,241.845403 361.120004,240.786746 362.040007,239.732088 362.959993,238.681317 363.879996,237.634338 364.800000,236.591053 365.720004,235.551365 366.640007,234.515187 367.559993,233.482443 368.479996,232.453045 369.400000,231.426922 370.320004,230.403998 371.240007,229.384209 372.159993,228.367484 373.079996,227.353760 374.000000,226.342982 374.920004,225.335082 375.840007,224.330006 376.759993,223.327701 377.679996,222.328121 378.600000,221.331207 379.520004,220.336912 380.440007,219.345195 381.359993,218.356004 382.279996,217.369303 383.200000,216.385045 384.120004,215.403189 385.040007,214.423701 385.959993,213.446533 386.879996,212.471662 387.800000,211.499041 388.720004,210.528641 389.640007,209.560426 390.559993,208.594367 391.479996,207.630430 392.400000,206.668584 393.319986,205.708795 394.240007,204.751045 395.159993,203.795299 396.080014,202.841527 397.000000,201.889707 397.919986,200.939814 398.840007,199.991826 399.759993,199.045707 400.680014,198.101439 401.600000,197.159000 402.519986,196.218371 403.440007,195.279523 404.359993,194.342434 405.280014,193.407090 406.200000,192.473463 407.119986,191.541535 408.040007,190.611289 408.959993,189.682707 409.880014,188.755760 410.800000,187.830441 411.719986,186.906734 412.640007,185.984609 413.559993,185.064055 414.480014,184.145059 415.400000,183.227598 416.319986,182.311672 417.240007,181.397234 418.159993,180.484297 419.080014,179.572836 420.000000,178.662840 420.919986,177.754285 421.840007,176.847160 422.759993,175.941453 423.680014,175.037152 424.600000,174.134246 425.519986,173.232723 426.440007,172.332559 427.359993,171.433754 428.280014,170.536273 429.200000,169.640141 430.119986,168.745309 431.040007,167.851789 431.959993,166.959559 432.880014,166.068617 433.800000,165.178941 434.719986,164.290531 435.640007,163.403363 436.559993,162.517426 437.480014,161.632730 438.400000,160.749242 439.319986,159.866973 440.240007,158.985887 441.159993,158.105996 442.080014,157.227289 443.000000,156.349742 443.919986,155.473367 444.840007,154.598129 445.759993,153.724039 446.680014,152.851074 447.600000,151.979246 448.519986,151.108520 449.440007,150.238918 450.359993,149.370395 451.280014,148.502973 452.200000,147.636641 453.119986,146.771375 454.040007,145.907176 454.959993,145.044031 455.880014,144.181953 456.800000,143.320906 457.719986,142.460902 458.640007,141.601918 459.559993,140.743965 460.480014,139.887020 461.400000,139.031094 462.319986,138.176164 463.240007,137.322230 464.159993,136.469281 465.080014,135.617305 466.000000,134.766312 466.919986,133.916293 467.840007,133.067234 468.759993,132.219125 469.680014,131.371965 470.600000,130.525754 471.519986,129.680480 472.440007,128.836133 473.359993,127.992711 474.280014,127.150215 475.200000,126.308633 476.119986,125.467953 477.040007,124.628187 477.959993,123.789312 478.880014,122.951328 479.800000,122.114223 480.719986,121.278008 481.640007,120.442672 482.559993,119.608203 483.480014,118.774602 484.400000,117.941855 485.319986,117.109977 486.240007,116.278941 487.159993,115.448750 488.080014,114.619402 489.000000,113.790887 489.919986,112.963203 490.840007,112.136352 491.759993,111.310320 492.680014,110.485109 493.600000,109.660707 494.519986,108.837125 495.440007,108.014328 496.359993,107.192352 497.280014,106.371160 498.200000,105.550754 499.119986,104.731145 500.040007,103.912320 500.959993,103.094270 501.880014,102.276992 502.800000,101.460488 503.719986,100.644746 504.640007,99.829777 505.559993,99.015559 506.480014,98.202102 507.400000,97.389395 508.319986,96.577438 509.240007,95.766219 510.159993,94.955738 511.080014,94.145996 512.000000,93.336992 512.919986,92.528715 513.840007,91.721152 514.759993,90.914328 515.680014,90.108207 516.600000,89.302812 517.519986,88.498133 518.440007,87.694156 519.359993,86.890883 520.280014,86.088313 521.200000,85.286422 522.119986,84.485258 523.040007,83.684773 523.959993,82.884969 524.880014,82.085867 525.800000,81.287422 526.719986,80.489680 527.640007,79.692594 528.559993,78.896187 529.480014,78.100461 530.400000,77.305391 531.319986,76.511000 532.240007,75.717242 533.159993,74.924164 534.080014,74.131742 535.000000,73.339977 535.919986,72.548844 536.840007,71.758367 537.759993,70.968523 538.680014,70.179336 539.600000,69.390781 540.519986,68.602859 541.440007,67.815570 542.359993,67.028914 543.280014,66.242867 544.200000,65.457477 545.119986,64.672672 546.040007,63.888523 546.959993,63.104961 547.880014,62.322031 548.800000,61.539711 549.719986,60.758000 550.640007,59.976898 551.559993,59.196406 552.480014,58.416500 553.400000,57.637203 554.319986,56.858516 555.240007,56.080414 556.159993,55.302898 557.080014,54.525969 558.000000,53.749625 558.000000,53.749625"/>
	<rect fill="rgb(255,255,255)" stroke="none" stroke-opacity="0.7" transform="translate(138, 22.5) translate(0, 0) scale(1,-1)" x="-40" y="-11.5" width="80" height="23"/>
	<polyline fill="none" stroke="rgb(28,108,200)" stroke-width="1" stroke-opacity="1" points="98.000000,23.000000 128.000000,23.000000"/>
	<text fill="rgb(0,0,0)" font-size="11" font-family="Arial" text-anchor="start" dominant-baseline="central" x="133" y="23">Pelec</text>
</svg>
