<?xml version="1.0" standalone="no"?>
<!DOCTYPE svg PUBLIC "-//W3C//DTD SVG 1.1//EN" "http://www.w3.org/Graphics/SVG/1.1/DTD/svg11.dtd">
<svg viewBox="0 0 600.000000 400.000000" version="1.1" xmlns="http://www.w3.org/2000/svg" xmlns:xlink="http://www.w3.org/1999/xlink">
	<polyline fill="none" stroke="rgb(229,229,229)" stroke-width="1" stroke-opacity="1" points="67.000000,44.000000 67.000000,368.000000"/>
	<polyline fill="none" stroke="rgb(229,229,229)" stroke-width="1" stroke-opacity="1" points="117.100000,44.000000 117.100000,368.000000"/>
	<polyline fill="none" stroke="rgb(229,229,229)" stroke-width="1" stroke-opacity="1" points="167.200000,44.000000 167.200000,368.000000"/>
	<polyline fill="none" stroke="rgb(229,229,229)" stroke-width="1" stroke-opacity="1" points="217.300000,44.000000 217.300000,368.000000"/>
	<polyline fill="none" stroke="rgb(229,229,229)" stroke-width="1" stroke-opacity="1" points="267.400000,44.000000 267.400000,368.000000"/>
	<polyline fill="none" stroke="rgb(229,229,229)" stroke-width="1" stroke-opacity="1" points="317.500000,44.000000 317.500000,368.000000"/>
	<polyline fill="none" stroke="rgb(229,229,229)" stroke-width="1" stroke-opacity="1" points="367.600000,44.000000 367.600000,368.000000"/>
	<polyline fill="none" stroke="rgb(229,229,229)" stroke-width="1" stroke-opacity="1" points="417.700000,44.000000 417.700000,368.000000"/>
	<polyline fill="none" stroke="rgb(229,229,229)" stroke-width="1" stroke-opacity="1" points="467.800000,44.000000 467.800000,368.000000"/>
	<polyline fill="none" stroke="rgb(229,229,229)" stroke-width="1" stroke-opacity="1" points="517.900000,44.000000 517.900000,368.000000"/>
	<polyline fill="none" stroke="rgb(229,229,229)" stroke-width="1" stroke-opacity="1" points="568.000000,44.000000 568.000000,368.000000"/>
	<polyline fill="none" stroke="rgb(229,229,229)" stroke-width="1" stroke-opacity="1" points="67.000000,368.000000 568.000000,368.000000"/>
	<polyline fill="none" stroke="rgb(229,229,229)" stroke-width="1" stroke-opacity="1" points="67.000000,314.000000 568.000000,314.000000"/>
	<polyline fill="none" stroke="rgb(229,229,229)" stroke-width="1" stroke-opacity="1" points="67.000000,260.000000 568.000000,260.000000"/>
	<polyline fill="none" stroke="rgb(229,229,229)" stroke-width="1" stroke-opacity="1" points="67.000000,206.000000 568.000000,206.000000"/>
	<polyline fill="none" stroke="rgb(229,229,229)" stroke-width="1" stroke-opacity="1" points="67.000000,152.000000 568.000000,152.000000"/>
	<polyline fill="none" stroke="rgb(229,229,229)" stroke-width="1" stroke-opacity="1" points="67.000000,98.000000 568.000000,98.000000"/>
	<polyline fill="none" stroke="rgb(229,229,229)" stroke-width="1" stroke-opacity="1" points="67.000000,44.000000 568.000000,44.000000"/>
	<polyline fill="none" stroke="rgb(0,0,0)" stroke-width="1" stroke-opacity="1" points="67.000000,368.000000 568.000000,368.000000"/>
	<polyline fill="none" stroke="rgb(0,0,0)" stroke-width="1" stroke-opacity="1" points="568.000000,368.000000 568.000000,44.000000"/>
	<polyline fill="none" stroke="rgb(0,0,0)" stroke-width="1" stroke-opacity="1" points="568.000000,44.000000 67.000000,44.000000"/>
	<polyline fill="none" stroke="rgb(0,0,0)" stroke-width="1" stroke-opacity="1" points="67.000000,44.000000 67.000000,368.000000"/>
	<polyline fill="none" stroke="rgb(0,0,0)" stroke-width="1" stroke-opacity="1" points="67.000000,368.000000 67.000000,373.000000"/>
	<polyline fill="none" stroke="rgb(0,0,0)" stroke-width="1" stroke-opacity="1" points="117.100000,368.000000 117.100000,373.000000"/>
	<polyline fill="none" stroke="rgb(0,0,0)" stroke-width="1" stroke-opacity="1" points="167.200000,368.000000 167.200000,373.000000"/>
	<polyline fill="none" stroke="rgb(0,0,0)" stroke-width="1" stroke-opacity="1" points="217.300000,368.000000 217.300000,373.000000"/>
	<polyline fill="none" stroke="rgb(0,0,0)" stroke-width="1" stroke-opacity="1" points="267.400000,368.000000 267.400000,373.000000"/>
	<polyline fill="none" stroke="rgb(0,0,0)" stroke-width="1" stroke-opacity="1" points="317.500000,368.000000 317.500000,373.000000"/>
	<polyline fill="none" stroke="rgb(0,0,0)" stroke-width="1" stroke-opacity="1" points="367.600000,368.000000 367.600000,373.000000"/>
	<polyline fill="none" stroke="rgb(0,0,0)" stroke-width="1" stroke-opacity="1" points="417.700000,368.000000 417.700000,373.000000"/>
	<polyline fill="none" stroke="rgb(0,0,0)" stroke-width="1" stroke-opacity="1" points="467.800000,368.000000 467.800000,373.000000"/>
	<polyline fill="none" stroke="rgb(0,0,0)" stroke-width="1" stroke-opacity="1" points="517.900000,368.000000 517.900000,373.000000"/>
	<polyline fill="none" stroke="rgb(0,0,0)" stroke-width="1" stroke-opacity="1" points="568.000000,368.000000 568.000000,373.000000"/>
	<polyline fill="none" stroke="rgb(0,0,0)" stroke-width="1" stroke-opacity="1" points="67.000000,368.000000 67.000000,376.000000"/>
	<text fill="rgb(0,0,0)" font-size="11" font-family="Arial" text-anchor="middle" dominant-baseline="central" x="67" y="387">0</text>
	<polyline fill="none" stroke="rgb(0,0,0)" stroke-width="1" stroke-opacity="1" points="167.200000,368.000000 167.200000,376.000000"/>
	<text fill="rgb(0,0,0)" font-size="11" font-family="Arial" text-anchor="middle" dominant-baseline="central" x="167.2" y="387">40</text>
	<polyline fill="none" stroke="rgb(0,0,0)" stroke-width="1" stroke-opacity="1" points="267.400000,368.000000 267.400000,376.000000"/>
	<text fill="rgb(0,0,0)" font-size="11" font-family="Arial" text-anchor="middle" dominant-baseline="central" x="267.4" y="387">80</text>
	<polyline fill="none" stroke="rgb(0,0,0)" stroke-width="1" stroke-opacity="1" points="367.600000,368.000000 367.600000,376.000000"/>
	<text fill="rgb(0,0,0)" font-size="11" font-family="Arial" text-anchor="middle" dominant-baseline="central" x="367.6" y="387">120</text>
	<polyline fill="none" stroke="rgb(0,0,0)" stroke-width="1" stroke-opacity="1" points="467.800000,368.000000 467.800000,376.000000"/>
	<text fill="rgb(0,0,0)" font-size="11" font-family="Arial" text-anchor="middle" dominant-baseline="central" x="467.8" y="387">160</text>
	<polyline fill="none" stroke="rgb(0,0,0)" stroke-width="1" stroke-opacity="1" points="568.000000,368.000000 568.000000,376.000000"/>
	<text fill="rgb(0,0,0)" font-size="11" font-family="Arial" text-anchor="middle" dominant-baseline="central" x="568" y="387">200</text>
	<polyline fill="none" stroke="rgb(0,0,0)" stroke-width="1" stroke-opacity="1" points="62.000000,368.000000 67.000000,368.000000"/>
	<polyline fill="none" stroke="rgb(0,0,0)" stroke-width="1" stroke-opacity="1" points="62.000000,314.000000 67.000000,314.000000"/>
	<polyline fill="none" stroke="rgb(0,0,0)" stroke-width="1" stroke-opacity="1" points="62.000000,260.000000 67.000000,260.000000"/>
	<polyline fill="none" stroke="rgb(0,0,0)" stroke-width="1" stroke-opacity="1" points="62.000000,206.000000 67.000000,206.000000"/>
	<polyline fill="none" stroke="rgb(0,0,0)" stroke-width="1" stroke-opacity="1" points="62.000000,152.000000 67.000000,152.000000"/>
	<polyline fill="none" stroke="rgb(0,0,0)" stroke-width="1" stroke-opacity="1" points="62.000000,98.000000 67.000000,98.000000"/>
	<polyline fill="none" stroke="rgb(0,0,0)" stroke-width="1" stroke-opacity="1" points="62.000000,44.000000 67.000000,44.000000"/>
	<rect fill="none" stroke="none" stroke-dasharray="none" stroke-width="1" stroke-opacity="1" x="-6" y="359" width="63" height="18"/>
	<polyline fill="none" stroke="rgb(0,0,0)" stroke-width="1" stroke-opacity="1" points="59.000000,368.000000 67.000000,368.000000"/>
	<text fill="rgb(0,0,0)" font-size="11" font-family="Arial" text-anchor="end" dominant-baseline="central" x="57" y="368">500</text>
	<polyline fill="none" stroke="rgb(0,0,0)" stroke-width="1" stroke-opacity="1" points="59.000000,314.000000 67.000000,314.000000"/>
	<text fill="rgb(0,0,0)" font-size="11" font-family="Arial" text-anchor="end" dominant-baseline="central" x="57" y="314">1000</text>
	<polyline fill="none" stroke="rgb(0,0,0)" stroke-width="1" stroke-opacity="1" points="59.000000,260.000000 67.000000,260.000000"/>
	<text fill="rgb(0,0,0)" font-size="11" font-family="Arial" text-anchor="end" dominant-baseline="central" x="57" y="260">1500</text>
	<polyline fill="none" stroke="rgb(0,0,0)" stroke-width="1" stroke-opacity="1" points="59.000000,206.000000 67.000000,206.000000"/>
	<text fill="rgb(0,0,0)" font-size="11" font-family="Arial" text-anchor="end" dominant-baseline="central" x="57" y="206">2000</text>
	<polyline fill="none" stroke="rgb(0,0,0)" stroke-width="1" stroke-opacity="1" points="59.000000,152.000000 67.000000,152.000000"/>
	<text fill="rgb(0,0,0)" font-size="11" font-family="Arial" text-anchor="end" dominant-baseline="central" x="57" y="152">2500</text>
	<polyline fill="none" stroke="rgb(0,0,0)" stroke-width="1" stroke-opacity="1" points="59.000000,98.000000 67.000000,98.000000"/>
	<text fill="rgb(0,0,0)" font-size="11" font-family="Arial" text-anchor="end" dominant-baseline="central" x="57" y="98">3000</text>
	<polyline fill="none" stroke="rgb(0,0,0)" stroke-width="1" stroke-opacity="1" points="59.000000,44.000000 67.000000,44.000000"/>
	<text fill="rgb(0,0,0)" font-size="11" font-family="Arial" text-anchor="end" dominant-baseline="central" x="57" y="44">3500</text>
	<clipPath id="clipArea1">
		<rect x="67" y="44" width="501" height="324">
		</rect>
	</clipPath>
	<polyline fill="none" stroke="rgb(28,108,200)" stroke-width="1" stroke-opacity="1" clip-path="url(#clipArea1)" points="67.000000,57.982572 68.002000,57.982572 69.004000,57.982572 70.006000,57.982572 71.008000,57.982572 72.010000,57.982572 73.012000,57.982572 74.014000,57.982572 75.016000,57.982572 76.018000,57.982572 77.020000,57.982572 78.022000,57.982572 79.024000,57.982572 80.026000,57.982572 81.028000,57.982572 82.030000,57.982572 83.032000,57.982572 84.034000,57.982572 85.036000,57.982572 86.038000,57.982572 87.040000,57.982572 88.041999,57.982572 89.044000,57.982572 90.046000,57.982572 91.048001,57.982572 92.050000,57.982572 93.051999,57.982572 94.054000,57.982572 95.056000,57.982572 96.058001,57.982572 97.060000,57.982572 98.061999,57.982572 99.064000,57.982572 100.066000,57.982572 101.068001,57.982572 102.070000,57.982572 103.071999,57.982572 104.074000,57.982572 105.076000,57.982572 106.078001,57.982572 107.080000,57.982572 108.081999,57.982572 109.083998,57.982572 110.086002,57.982572 111.088001,57.982572 112.090000,57.982572 113.091999,57.982572 114.093998,57.982572 115.096002,57.982572 116.098001,57.982572 117.100000,57.982572 118.101999,57.982572 119.103998,57.982572 120.106002,57.982572 121.108001,57.982572 122.110000,57.982572 123.111999,57.982572 124.113998,57.982572 125.116002,57.982572 126.118001,57.982572 127.120000,57.982572 128.121999,57.982572 129.123998,57.982572 130.126002,57.982572 131.128001,57.982572 132.130000,57.982572 133.131999,57.982572 134.133998,57.982572 135.136002,57.982572 136.138001,57.982572 137.140000,57.982572 138.141999,57.982572 139.143998,57.982572 140.146002,57.982572 141.148001,57.982572 142.150000,57.982572 143.151999,57.982572 144.153998,57.982572 145.156002,57.982572 146.158001,57.982572 147.160000,57.982572 148.162004,57.982572 149.163998,57.982572 150.166002,57.982572 151.167996,57.982572 152.170000,57.982572 153.172004,57.982572 154.173998,57.982572 155.176002,57.982572 156.177996,57.982572 157.180000,57.982572 158.182004,57.982572 159.183998,57.982572 160.186002,57.982572 161.187996,57.982572 162.190000,57.982572 163.192004,57.982572 164.193998,57.982572 165.196002,57.982572 166.197996,57.982572 167.200000,57.982572 168.202004,57.982572 169.203998,57.982572 170.206002,57.982572 171.207996,57.982572 172.210000,57.982572 173.212004,57.982572 174.213998,57.982572 175.216002,57.982572 176.217996,57.982572 177.220000,57.982572 178.222004,57.982572 179.223998,57.982572 180.226002,57.982572 181.227996,57.982572 182.230000,57.982572 183.232004,57.982572 184.233998,57.982572 185.236002,57.982572 186.237996,57.982572 187.240000,57.982572 188.242004,57.982572 189.243998,57.982572 190.246002,57.982572 191.247996,57.982572 192.250000,57.982572 193.252004,240.268880 194.253998,251.461632 195.256002,258.009528 196.257996,262.655716 197.260000,266.259887 198.262004,269.204943 199.263998,271.695140 200.266002,273.852437 201.267996,275.755449 202.270000,277.457899 203.272004,278.998073 204.273998,280.404248 205.276002,281.697915 206.277996,282.895763 207.280000,284.011016 208.282004,285.054352 209.283998,286.034486 210.286002,286.958656 211.287996,287.832926 212.290000,288.662398 213.292004,289.451463 214.293998,290.203877 215.296002,290.922884 216.297996,291.611344 217.300000,292.271763 218.302004,292.906316 219.303998,293.516967 220.306002,294.105443 221.307996,294.673326 222.310000,295.222001 223.312004,295.752720 224.313998,296.266629 225.316002,296.764758 226.317996,297.248069 227.320000,297.717392 228.322004,298.173544 229.324008,298.617211 230.325992,299.049093 231.327996,299.469794 232.330000,299.879870 233.332004,300.279860 234.334008,300.670227 235.335992,301.051443 236.337996,301.423933 237.340000,301.788077 238.342004,302.144245 239.344008,302.492779 240.345992,302.833997 241.347996,303.168214 242.350000,303.495708 243.352004,303.816742 244.354008,304.131553 245.355992,304.440405 246.357996,304.743509 247.360000,305.041063 248.362004,305.333290 249.364008,305.620363 250.365992,305.902465 251.367996,306.179769 252.370000,306.452432 253.372004,306.720613 254.374008,306.984443 255.375992,307.244081 256.377996,307.499658 257.380000,307.751280 258.382004,307.999079 259.384008,308.243186 260.385992,308.483681 261.387996,308.720696 262.390000,308.954309 263.392004,309.184626 264.394008,309.411740 265.395992,309.635743 266.397996,309.856726 267.400000,310.074743 268.402004,310.289899 269.404008,310.502261 270.405992,310.711893 271.407996,310.918875 272.410000,311.123261 273.412004,311.325128 274.414008,311.524543 275.415992,311.721552 276.417996,311.916214 277.420000,312.108589 278.422004,312.298730 279.424008,312.486688 280.425992,312.672511 281.427996,312.856251 282.430000,313.037947 283.432004,313.217653 284.434008,313.395414 285.435992,313.571263 286.437996,313.745240 287.440000,313.917398 288.442004,314.087763 289.444008,314.256375 290.445992,314.423272 291.447996,314.588489 292.450000,314.752058 293.452004,314.914012 294.454008,315.074384 295.455992,315.233207 296.457996,315.390500 297.460000,315.546304 298.462004,315.700644 299.464008,315.853547 300.465992,316.005040 301.467996,316.155148 302.470000,316.303899 303.472004,316.451311 304.474008,316.597418 305.475992,316.742234 306.477996,316.885783 307.480000,317.028094 308.482004,317.169184 309.484008,317.309075 310.485992,317.447780 311.487996,317.585331 312.490000,317.721742 313.492004,317.857032 314.494008,317.991214 315.495992,318.124316 316.497996,318.256350 317.500000,318.387335 318.502004,318.387335 319.504008,318.387335 320.505992,318.387335 321.507996,318.387335 322.510000,318.387335 323.512004,318.387335 324.514008,318.387335 325.515992,318.387335 326.517996,318.387335 327.520000,318.387335 328.522004,318.387335 329.524008,318.387335 330.525992,318.387335 331.527996,318.387335 332.530000,318.387335 333.532004,318.387335 334.534008,318.387335 335.535992,318.387335 336.537996,318.387335 337.540000,318.387335 338.542004,318.387335 339.544008,318.387335 340.545992,318.387335 341.547996,318.387335 342.550000,318.387335 343.552004,318.387335 344.554008,318.387335 345.555992,318.387335 346.557996,318.387335 347.560000,318.387335 348.562004,318.387335 349.564008,318.387335 350.565992,318.387335 351.567996,318.387335 352.570000,318.387335 353.572004,318.387335 354.574008,318.387335 355.575992,318.387335 356.577996,318.387335 357.580000,318.387335 358.582004,318.387335 359.584008,318.387335 360.585992,318.387335 361.587996,318.387335 362.590000,318.387335 363.592004,318.387335 364.594008,318.387335 365.595992,318.387335 366.597996,318.387335 367.600000,318.387335 368.602004,318.387335 369.604008,318.387335 370.605992,318.387335 371.607996,318.387335 372.610000,318.387335 373.612004,318.387335 374.614008,318.387335 375.615992,318.387335 376.617996,318.387335 377.620000,318.387335 378.622004,318.387335 379.624008,318.387335 380.625992,318.387335 381.627996,318.387335 382.630000,318.387335 383.632004,318.387335 384.634008,318.387335 385.635992,318.387335 386.637996,318.387335 387.640000,318.387335 388.641985,318.387335 389.644008,318.387335 390.645992,318.387335 391.648015,318.387335 392.650000,318.387335 393.651985,318.387335 394.654008,318.387335 395.655992,318.387335 396.658015,318.387335 397.660000,318.387335 398.661985,318.387335 399.664008,318.387335 400.665992,318.387335 401.668015,318.387335 402.670000,318.387335 403.671985,318.387335 404.674008,318.387335 405.675992,318.387335 406.678015,318.387335 407.680000,318.387335 408.681985,318.387335 409.684008,318.387335 410.685992,318.387335 411.688015,318.387335 412.690000,318.387335 413.691985,318.387335 414.694008,318.387335 415.695992,318.387335 416.698015,318.387335 417.700000,318.387335 418.701985,318.387335 419.704008,318.387335 420.705992,318.387335 421.708015,318.387335 422.710000,318.387335 423.711985,318.387335 424.714008,318.387335 425.715992,318.387335 426.718015,318.387335 427.720000,318.387335 428.721985,318.387335 429.724008,318.387335 430.725992,318.387335 431.728015,318.387335 432.730000,318.387335 433.731985,318.387335 434.734008,318.387335 435.735992,318.387335 436.738015,318.387335 437.740000,318.387335 438.741985,318.387335 439.744008,318.387335 440.745992,318.387335 441.748015,318.387335 442.750000,318.387335 443.751985,318.387335 444.754008,318.387335 445.755992,318.387335 446.758015,318.387335 447.760000,318.387335 448.761985,318.387335 449.764008,318.387335 450.765992,318.387335 451.768015,318.387335 452.770000,318.387335 453.771985,318.387335 454.774008,318.387335 455.775992,318.387335 456.778015,318.387335 457.780000,318.387335 458.781985,318.387335 459.784008,318.387335 460.785992,318.387335 461.788015,318.387335 462.790000,318.387335 463.791985,318.387335 464.794008,318.387335 465.795992,318.387335 466.798015,318.387335 467.800000,318.387335 468.801985,318.387335 469.804008,318.387335 470.805992,318.387335 471.808015,318.387335 472.810000,318.387335 473.811985,318.387335 474.814008,318.387335 475.815992,318.387335 476.818015,318.387335 477.820000,318.387335 478.821985,318.387335 479.824008,318.387335 480.825992,318.387335 481.828015,318.387335 482.830000,318.387335 483.831985,318.387335 484.834008,318.387335 485.835992,318.387335 486.838015,318.387335 487.840000,318.387335 488.841985,318.387335 489.844008,318.387335 490.845992,318.387335 491.848015,318.387335 492.850000,318.387335 493.851985,318.387335 494.854008,318.387335 495.855992,318.387335 496.858015,318.387335 497.860000,318.387335 498.861985,318.387335 499.864008,318.387335 500.865992,318.387335 501.868015,318.387335 502.870000,318.387335 503.871985,318.387335 504.874008,318.387335 505.875992,318.387335 506.878015,318.387335 507.880000,318.387335 508.881985,318.387335 509.884008,318.387335 510.885992,318.387335 511.888015,318.387335 512.890000,318.387335 513.891985,318.387335 514.894008,318.387335 515.895992,318.387335 516.898015,318.387335 517.900000,318.387335 518.901985,318.387335 519.904008,318.387335 520.905992,318.387335 521.908015,318.387335 522.910000,318.387335 523.911985,318.387335 524.914008,318.387335 525.915992,318.387335 526.918015,318.387335 527.920000,318.387335 528.921985,318.387335 529.924008,318.387335 530.925992,318.387335 531.928015,318.387335 532.930000,318.387335 533.931985,318.387335 534.934008,318.387335 535.935992,318.387335 536.938015,318.387335 537.940000,318.387335 538.941985,318.387335 539.944008,318.387335 540.945992,318.387335 541.948015,318.387335 542.950000,318.387335 543.951985,318.387335 544.954008,318.387335 545.955992,318.387335 546.958015,318.387335 547.960000,318.387335 548.961985,318.387335 549.964008,318.387335 550.965992,318.387335 551.968015,318.387335 552.970000,318.387335 553.971985,318.387335 554.974008,318.387335 555.975992,318.387335 556.978015,318.387335 557.980000,318.387335 558.981985,318.387335 559.984008,318.387335 560.985992,318.387335 561.988015,318.387335 562.990000,318.387335 563.991985,318.387335 564.994008,318.387335 565.995992,318.387335 566.998015,318.387335 568.000000,318.387335 568.000000,318.387335"/>
	<rect fill="rgb(255,255,255)" stroke="none" stroke-opacity="0.7" transform="translate(106, 22.5) translate(0, 0) scale(1,-1)" x="-39" y="-11.5" width="78" height="23"/>
	<polyline fill="none" stroke="rgb(28,108,200)" stroke-width="1" stroke-opacity="1" points="67.000000,23.000000 97.000000,23.000000"/>
	<text fill="rgb(0,0,0)" font-size="11" font-family="Arial" text-anchor="start" dominant-baseline="central" x="102" y="23">v_FC</text>
</svg>
