<?xml version="1.0" standalone="no"?>
<!DOCTYPE svg PUBLIC "-//W3C//DTD SVG 1.1//EN" "http://www.w3.org/Graphics/SVG/1.1/DTD/svg11.dtd">
<svg viewBox="0 0 590.000000 364.000000" version="1.1" xmlns="http://www.w3.org/2000/svg" xmlns:xlink="http://www.w3.org/1999/xlink">
	<polyline fill="none" stroke="rgb(229,229,229)" stroke-width="1" stroke-opacity="1" points="98.000000,44.000000 98.000000,332.000000"/>
	<polyline fill="none" stroke="rgb(229,229,229)" stroke-width="1" stroke-opacity="1" points="144.000000,44.000000 144.000000,332.000000"/>
	<polyline fill="none" stroke="rgb(229,229,229)" stroke-width="1" stroke-opacity="1" points="190.000000,44.000000 190.000000,332.000000"/>
	<polyline fill="none" stroke="rgb(229,229,229)" stroke-width="1" stroke-opacity="1" points="236.000000,44.000000 236.000000,332.000000"/>
	<polyline fill="none" stroke="rgb(229,229,229)" stroke-width="1" stroke-opacity="1" points="282.000000,44.000000 282.000000,332.000000"/>
	<polyline fill="none" stroke="rgb(229,229,229)" stroke-width="1" stroke-opacity="1" points="328.000000,44.000000 328.000000,332.000000"/>
	<polyline fill="none" stroke="rgb(229,229,229)" stroke-width="1" stroke-opacity="1" points="374.000000,44.000000 374.000000,332.000000"/>
	<polyline fill="none" stroke="rgb(229,229,229)" stroke-width="1" stroke-opacity="1" points="420.000000,44.000000 420.000000,332.000000"/>
	<polyline fill="none" stroke="rgb(229,229,229)" stroke-width="1" stroke-opacity="1" points="466.000000,44.000000 466.000000,332.000000"/>
	<polyline fill="none" stroke="rgb(229,229,229)" stroke-width="1" stroke-opacity="1" points="512.000000,44.000000 512.000000,332.000000"/>
	<polyline fill="none" stroke="rgb(229,229,229)" stroke-width="1" stroke-opacity="1" points="558.000000,44.000000 558.000000,332.000000"/>
	<polyline fill="none" stroke="rgb(229,229,229)" stroke-width="1" stroke-opacity="1" points="98.000000,332.000000 558.000000,332.000000"/>
	<polyline fill="none" stroke="rgb(229,229,229)" stroke-width="1" stroke-opacity="1" points="98.000000,284.000000 558.000000,284.000000"/>
	<polyline fill="none" stroke="rgb(229,229,229)" stroke-width="1" stroke-opacity="1" points="98.000000,236.000000 558.000000,236.000000"/>
	<polyline fill="none" stroke="rgb(229,229,229)" stroke-width="1" stroke-opacity="1" points="98.000000,188.000000 558.000000,188.000000"/>
	<polyline fill="none" stroke="rgb(229,229,229)" stroke-width="1" stroke-opacity="1" points="98.000000,140.000000 558.000000,140.000000"/>
	<polyline fill="none" stroke="rgb(229,229,229)" stroke-width="1" stroke-opacity="1" points="98.000000,92.000000 558.000000,92.000000"/>
	<polyline fill="none" stroke="rgb(229,229,229)" stroke-width="1" stroke-opacity="1" points="98.000000,44.000000 558.000000,44.000000"/>
	<polyline fill="none" stroke="rgb(0,0,0)" stroke-width="1" stroke-opacity="1" points="98.000000,332.000000 558.000000,332.000000"/>
	<polyline fill="none" stroke="rgb(0,0,0)" stroke-width="1" stroke-opacity="1" points="558.000000,332.000000 558.000000,44.000000"/>
	<polyline fill="none" stroke="rgb(0,0,0)" stroke-width="1" stroke-opacity="1" points="558.000000,44.000000 98.000000,44.000000"/>
	<polyline fill="none" stroke="rgb(0,0,0)" stroke-width="1" stroke-opacity="1" points="98.000000,44.000000 98.000000,332.000000"/>
	<polyline fill="none" stroke="rgb(0,0,0)" stroke-width="1" stroke-opacity="1" points="98.000000,332.000000 98.000000,337.000000"/>
	<polyline fill="none" stroke="rgb(0,0,0)" stroke-width="1" stroke-opacity="1" points="144.000000,332.000000 144.000000,337.000000"/>
	<polyline fill="none" stroke="rgb(0,0,0)" stroke-width="1" stroke-opacity="1" points="190.000000,332.000000 190.000000,337.000000"/>
	<polyline fill="none" stroke="rgb(0,0,0)" stroke-width="1" stroke-opacity="1" points="236.000000,332.000000 236.000000,337.000000"/>
	<polyline fill="none" stroke="rgb(0,0,0)" stroke-width="1" stroke-opacity="1" points="282.000000,332.000000 282.000000,337.000000"/>
	<polyline fill="none" stroke="rgb(0,0,0)" stroke-width="1" stroke-opacity="1" points="328.000000,332.000000 328.000000,337.000000"/>
	<polyline fill="none" stroke="rgb(0,0,0)" stroke-width="1" stroke-opacity="1" points="374.000000,332.000000 374.000000,337.000000"/>
	<polyline fill="none" stroke="rgb(0,0,0)" stroke-width="1" stroke-opacity="1" points="420.000000,332.000000 420.000000,337.000000"/>
	<polyline fill="none" stroke="rgb(0,0,0)" stroke-width="1" stroke-opacity="1" points="466.000000,332.000000 466.000000,337.000000"/>
	<polyline fill="none" stroke="rgb(0,0,0)" stroke-width="1" stroke-opacity="1" points="512.000000,332.000000 512.000000,337.000000"/>
	<polyline fill="none" stroke="rgb(0,0,0)" stroke-width="1" stroke-opacity="1" points="558.000000,332.000000 558.000000,337.000000"/>
	<polyline fill="none" stroke="rgb(0,0,0)" stroke-width="1" stroke-opacity="1" points="98.000000,332.000000 98.000000,340.000000"/>
	<text fill="rgb(0,0,0)" font-size="11" font-family="Arial" text-anchor="middle" dominant-baseline="central" x="98" y="351">0</text>
	<polyline fill="none" stroke="rgb(0,0,0)" stroke-width="1" stroke-opacity="1" points="190.000000,332.000000 190.000000,340.000000"/>
	<text fill="rgb(0,0,0)" font-size="11" font-family="Arial" text-anchor="middle" dominant-baseline="central" x="190" y="351">20</text>
	<polyline fill="none" stroke="rgb(0,0,0)" stroke-width="1" stroke-opacity="1" points="282.000000,332.000000 282.000000,340.000000"/>
	<text fill="rgb(0,0,0)" font-size="11" font-family="Arial" text-anchor="middle" dominant-baseline="central" x="282" y="351">40</text>
	<polyline fill="none" stroke="rgb(0,0,0)" stroke-width="1" stroke-opacity="1" points="374.000000,332.000000 374.000000,340.000000"/>
	<text fill="rgb(0,0,0)" font-size="11" font-family="Arial" text-anchor="middle" dominant-baseline="central" x="374" y="351">60</text>
	<polyline fill="none" stroke="rgb(0,0,0)" stroke-width="1" stroke-opacity="1" points="466.000000,332.000000 466.000000,340.000000"/>
	<text fill="rgb(0,0,0)" font-size="11" font-family="Arial" text-anchor="middle" dominant-baseline="central" x="466" y="351">80</text>
	<polyline fill="none" stroke="rgb(0,0,0)" stroke-width="1" stroke-opacity="1" points="558.000000,332.000000 558.000000,340.000000"/>
	<text fill="rgb(0,0,0)" font-size="11" font-family="Arial" text-anchor="middle" dominant-baseline="central" x="558" y="351">100</text>
	<polyline fill="none" stroke="rgb(0,0,0)" stroke-width="1" stroke-opacity="1" points="93.000000,332.000000 98.000000,332.000000"/>
	<polyline fill="none" stroke="rgb(0,0,0)" stroke-width="1" stroke-opacity="1" points="93.000000,284.000000 98.000000,284.000000"/>
	<polyline fill="none" stroke="rgb(0,0,0)" stroke-width="1" stroke-opacity="1" points="93.000000,236.000000 98.000000,236.000000"/>
	<polyline fill="none" stroke="rgb(0,0,0)" stroke-width="1" stroke-opacity="1" points="93.000000,188.000000 98.000000,188.000000"/>
	<polyline fill="none" stroke="rgb(0,0,0)" stroke-width="1" stroke-opacity="1" points="93.000000,140.000000 98.000000,140.000000"/>
	<polyline fill="none" stroke="rgb(0,0,0)" stroke-width="1" stroke-opacity="1" points="93.000000,92.000000 98.000000,92.000000"/>
	<polyline fill="none" stroke="rgb(0,0,0)" stroke-width="1" stroke-opacity="1" points="93.000000,44.000000 98.000000,44.000000"/>
	<rect fill="none" stroke="none" stroke-dasharray="none" stroke-width="1" stroke-opacity="1" x="25" y="323" width="63" height="18"/>
	<polyline fill="none" stroke="rgb(0,0,0)" stroke-width="1" stroke-opacity="1" points="90.000000,332.000000 98.000000,332.000000"/>
	<text fill="rgb(0,0,0)" font-size="11" font-family="Arial" text-anchor="end" dominant-baseline="central" x="88" y="332">500</text>
	<polyline fill="none" stroke="rgb(0,0,0)" stroke-width="1" stroke-opacity="1" points="90.000000,284.000000 98.000000,284.000000"/>
	<text fill="rgb(0,0,0)" font-size="11" font-family="Arial" text-anchor="end" dominant-baseline="central" x="88" y="284">1000</text>
	<polyline fill="none" stroke="rgb(0,0,0)" stroke-width="1" stroke-opacity="1" points="90.000000,236.000000 98.000000,236.000000"/>
	<text fill="rgb(0,0,0)" font-size="11" font-family="Arial" text-anchor="end" dominant-baseline="central" x="88" y="236">1500</text>
	<polyline fill="none" stroke="rgb(0,0,0)" stroke-width="1" stroke-opacity="1" points="90.000000,188.000000 98.000000,188.000000"/>
	<text fill="rgb(0,0,0)" font-size="11" font-family="Arial" text-anchor="end" dominant-baseline="central" x="88" y="188">2000</text>
	<polyline fill="none" stroke="rgb(0,0,0)" stroke-width="1" stroke-opacity="1" points="90.000000,140.000000 98.000000,140.000000"/>
	<text fill="rgb(0,0,0)" font-size="11" font-family="Arial" text-anchor="end" dominant-baseline="central" x="88" y="140">2500</text>
	<polyline fill="none" stroke="rgb(0,0,0)" stroke-width="1" stroke-opacity="1" points="90.000000,92.000000 98.000000,92.000000"/>
	<text fill="rgb(0,0,0)" font-size="11" font-family="Arial" text-anchor="end" dominant-baseline="central" x="88" y="92">3000</text>
	<polyline fill="none" stroke="rgb(0,0,0)" stroke-width="1" stroke-opacity="1" points="90.000000,44.000000 98.000000,44.000000"/>
	<text fill="rgb(0,0,0)" font-size="11" font-family="Arial" text-anchor="end" dominant-baseline="central" x="88" y="44">3500</text>
	<text fill="rgb(0,0,0)" font-size="11" font-family="Arial" text-anchor="middle" dominant-baseline="central" transform="translate(31, 188) rotate(-90)">[Fuel cell terminal voltage (V)]</text>
	<clipPath id="clipArea1">
		<rect x="98" y="44" width="460" height="288">
		</rect>
	</clipPath>
	<polyline fill="none" stroke="rgb(28,108,200)" stroke-width="1" stroke-opacity="1" clip-path="url(#clipArea1)" points="98.000000,56.428953 98.920000,56.428953 99.840000,56.428953 100.760000,56.428953 101.680000,56.428953 102.600000,56.428953 103.520000,56.428953 104.440000,56.428953 105.360000,56.428953 106.280000,56.428953 107.200000,56.428953 108.120000,56.428953 109.040000,56.428953 109.960000,56.428953 110.880000,56.428953 111.800000,56.428953 112.720000,56.428953 113.640000,56.428953 114.560000,56.428953 115.480000,56.428953 116.400000,56.428953 117.319999,56.428953 118.240000,56.428953 119.160000,56.428953 120.080001,56.428953 121.000000,56.428953 121.919999,56.428953 122.840000,56.428953 123.760000,56.428953 124.680001,56.428953 125.600000,56.428953 126.519999,56.428953 127.440000,56.428953 128.360000,56.428953 129.280001,56.428953 130.200000,56.428953 131.119999,56.428953 132.040000,56.428953 132.960000,56.428953 133.880001,56.428953 134.800000,56.428953 135.719999,56.428953 136.639998,56.428953 137.560002,56.428953 138.480001,56.428953 139.400000,56.428953 140.319999,56.428953 141.239998,56.428953 142.160002,56.428953 143.080001,56.428953 144.000000,56.428953 144.919999,56.428953 145.839998,56.428953 146.760002,56.428953 147.680001,56.428953 148.600000,56.428953 149.519999,56.428953 150.439998,56.428953 151.360002,56.428953 152.280001,56.428953 153.200000,56.428953 154.119999,56.428953 155.039998,56.428953 155.960002,56.428953 156.880001,56.428953 157.800000,56.428953 158.719999,56.428953 159.639998,56.428953 160.560002,56.428953 161.480001,56.428953 162.400000,56.428953 163.319999,56.428953 164.239998,56.428953 165.160002,56.428953 166.080001,56.428953 167.000000,56.428953 167.919999,56.428953 168.839998,56.428953 169.760002,56.428953 170.680001,56.428953 171.600000,56.428953 172.520004,56.428953 173.439998,56.428953 174.360002,56.428953 175.279996,56.428953 176.200000,56.428953 177.120004,56.428953 178.039998,56.428953 178.960002,56.428953 179.879996,56.428953 180.800000,56.428953 181.720004,56.428953 182.639998,56.428953 183.560002,56.428953 184.479996,56.428953 185.400000,56.428953 186.320004,56.428953 187.239998,56.428953 188.160002,56.428953 189.079996,56.428953 190.000000,56.428953 190.920004,56.428953 191.839998,56.428953 192.760002,56.428953 193.679996,56.428953 194.600000,56.428953 195.520004,56.428953 196.439998,56.428953 197.360002,56.428953 198.279996,56.428953 199.200000,56.428953 200.120004,56.428953 201.039998,56.428953 201.960002,56.428953 202.879996,56.428953 203.800000,56.428953 204.720004,56.428953 205.639998,56.428953 206.560002,56.428953 207.479996,56.428953 208.400000,56.428953 209.320004,56.428953 210.239998,56.428953 211.160002,56.428953 212.079996,56.428953 213.000000,56.428953 213.920004,56.428953 214.839998,56.428953 215.760002,56.428953 216.679996,56.428953 217.600000,56.428953 218.520004,56.428953 219.439998,56.428953 220.360002,56.428953 221.279996,56.428953 222.200000,56.428953 223.120004,56.428953 224.039998,56.428953 224.960002,56.428953 225.879996,56.428953 226.800000,56.428953 227.720004,56.428953 228.639998,56.428953 229.560002,56.428953 230.479996,56.428953 231.400000,56.428953 232.320004,56.428953 233.239998,56.428953 234.160002,56.428953 235.079996,56.428953 236.000000,56.428953 236.920004,56.428953 237.839998,56.428953 238.760002,56.428953 239.679996,56.428953 240.600000,56.428953 241.520004,56.428953 242.439998,56.428953 243.360002,56.428953 244.279996,56.428953 245.200000,56.428953 246.120004,56.428953 247.040007,56.428953 247.959993,56.428953 248.879996,56.428953 249.800000,56.428953 250.720004,56.428953 251.640007,56.428953 252.559993,56.428953 253.479996,56.428953 254.400000,56.428953 255.320004,56.428953 256.240007,56.428953 257.159993,56.428953 258.079996,56.428953 259.000000,56.428953 259.920004,56.428953 260.840007,56.428953 261.759993,56.428953 262.679996,56.428953 263.600000,56.428953 264.520004,56.428953 265.440007,56.428953 266.359993,56.428953 267.279996,56.428953 268.200000,56.428953 269.120004,56.428953 270.040007,56.428953 270.959993,56.428953 271.879996,56.428953 272.800000,56.428953 273.720004,56.428953 274.640007,56.428953 275.559993,56.428953 276.479996,56.428953 277.400000,56.428953 278.320004,56.428953 279.240007,56.428953 280.159993,56.428953 281.079996,56.428953 282.000000,56.428953 282.920004,56.428953 283.840007,56.428953 284.759993,56.428953 285.679996,56.428953 286.600000,56.428953 287.520004,56.428953 288.440007,56.428953 289.359993,56.428953 290.279996,56.428953 291.200000,56.428953 292.120004,56.428953 293.040007,56.428953 293.959993,56.428953 294.879996,56.428953 295.800000,56.428953 296.720004,56.428953 297.640007,56.428953 298.559993,56.428953 299.479996,56.428953 300.400000,56.428953 301.320004,56.428953 302.240007,56.428953 303.159993,56.428953 304.079996,56.428953 305.000000,56.428953 305.920004,56.428953 306.840007,56.428953 307.759993,56.428953 308.679996,56.428953 309.600000,56.428953 310.520004,56.428953 311.440007,56.428953 312.359993,56.428953 313.279996,56.428953 314.200000,56.428953 315.120004,56.428953 316.040007,56.428953 316.959993,56.428953 317.879996,56.428953 318.800000,56.428953 319.720004,56.428953 320.640007,56.428953 321.559993,56.428953 322.479996,56.428953 323.400000,56.428953 324.320004,56.428953 325.240007,56.428953 326.159993,56.428953 327.079996,56.428953 328.000000,56.428953 328.920004,208.512781 329.840007,218.461227 330.759993,224.280980 331.679996,228.410340 332.600000,231.613449 333.520004,234.230691 334.440007,236.443625 335.359993,238.360637 336.279996,240.051641 337.200000,241.564344 338.120004,242.932801 339.040007,244.182172 339.959993,245.331512 340.879996,246.395680 341.800000,247.386441 342.720004,248.313277 343.640007,249.183934 344.559993,250.004844 345.479996,250.781398 346.400000,251.518133 347.320004,252.218949 348.240007,252.887176 349.159993,253.525719 350.079996,254.137109 351.000000,254.723563 351.920004,255.287035 352.840007,255.829262 353.759993,256.351789 354.679996,256.855988 355.600000,257.343125 356.520004,257.814301 357.440007,258.270535 358.359993,258.712742 359.279996,259.141766 360.200000,259.558367 361.120004,259.963250 362.040007,260.357059 362.959993,260.740379 363.879996,261.113750 364.800000,261.477688 365.720004,261.832660 366.640007,262.179078 367.559993,262.517363 368.479996,262.847891 369.400000,263.170988 370.320004,263.487008 371.240007,263.796242 372.159993,264.098973 373.079996,264.395480 374.000000,264.686012 374.920004,264.970789 375.840007,265.250059 376.759993,265.524008 377.679996,265.792859 378.600000,266.056777 379.520004,266.315949 380.440007,266.570551 381.359993,266.820734 382.279996,267.066652 383.200000,267.308445 384.120004,267.546254 385.040007,267.780195 385.959993,268.010410 386.879996,268.237004 387.800000,268.460094 388.720004,268.679785 389.640007,268.896195 390.559993,269.109395 391.479996,269.319488 392.400000,269.526570 393.319986,269.730723 394.240007,269.932039 395.159993,270.130566 396.080014,270.326410 397.000000,270.519641 397.919986,270.710305 398.840007,270.898496 399.759993,271.084262 400.680014,271.267672 401.600000,271.448773 402.519986,271.627637 403.440007,271.804320 404.359993,271.978859 405.280014,272.151313 406.200000,272.321738 407.119986,272.490172 408.040007,272.656672 408.959993,272.821273 409.880014,272.984023 410.800000,273.144957 411.719986,273.304121 412.640007,273.461551 413.559993,273.617281 414.480014,273.771359 415.400000,273.923809 416.319986,274.074664 417.240007,274.223973 418.159993,274.371746 419.080014,274.518031 420.000000,274.662852 420.919986,274.806230 421.840007,274.948215 422.759993,275.088805 423.680014,275.228047 424.600000,275.365965 425.519986,275.502582 426.440007,275.637922 427.359993,275.772008 428.280014,275.904852 429.200000,276.036500 430.119986,276.166965 431.040007,276.296258 431.959993,276.424402 432.880014,276.551434 433.800000,276.677352 434.719986,276.802191 435.640007,276.925965 436.559993,277.048684 437.480014,277.170371 438.400000,277.291051 439.319986,277.410734 440.240007,277.529434 441.159993,277.647160 442.080014,277.763949 443.000000,277.879801 443.919986,277.994738 444.840007,278.108773 445.759993,278.221918 446.680014,278.334184 447.600000,278.445582 448.519986,278.556137 449.440007,278.665848 450.359993,278.774750 451.280014,278.882832 452.200000,278.990105 453.119986,279.096605 454.040007,279.202320 454.959993,279.307285 455.880014,279.411477 456.800000,279.514941 457.719986,279.617668 458.640007,279.719668 459.559993,279.820965 460.480014,279.921547 461.400000,280.021449 462.319986,280.120660 463.240007,280.219203 464.159993,280.317090 465.080014,280.414309 466.000000,280.510883 466.919986,280.606824 467.840007,280.702133 468.759993,280.796820 469.680014,280.890898 470.600000,280.984367 471.519986,281.077238 472.440007,281.169523 473.359993,281.261223 474.280014,281.352348 475.200000,281.442898 476.119986,281.532898 477.040007,281.622336 477.959993,281.711240 478.880014,281.799594 479.800000,281.887414 480.719986,281.974713 481.640007,282.061484 482.559993,282.147746 483.480014,282.233498 484.400000,282.318746 485.319986,282.403496 486.240007,282.487760 487.159993,282.571537 488.080014,282.654834 489.000000,282.737656 489.919986,282.820010 490.840007,282.901900 491.759993,282.983334 492.680014,283.064311 493.600000,283.144842 494.519986,283.224934 495.440007,283.304580 496.359993,283.383799 497.280014,283.462590 498.200000,283.540953 499.119986,283.618900 500.040007,283.696432 500.959993,283.773547 501.880014,283.850264 502.800000,283.926576 503.719986,284.002490 504.640007,284.078012 505.559993,284.153146 506.480014,284.227889 507.400000,284.302256 508.319986,284.376242 509.240007,284.449859 510.159993,284.523102 511.080014,284.595980 512.000000,284.668496 512.919986,284.740654 513.840007,284.812455 514.759993,284.883904 515.680014,284.955008 516.600000,285.025766 517.519986,285.096184 518.440007,285.166256 519.359993,285.236000 520.280014,285.305410 521.200000,285.374492 522.119986,285.443252 523.040007,285.511684 523.959993,285.579799 524.880014,285.647598 525.800000,285.715086 526.719986,285.782258 527.640007,285.849125 528.559993,285.915687 529.480014,285.981945 530.400000,286.047910 531.319986,286.113576 532.240007,286.178943 533.159993,286.244023 534.080014,286.308816 535.000000,286.373316 535.919986,286.437541 536.840007,286.501479 537.759993,286.565141 538.680014,286.628527 539.600000,286.691639 540.519986,286.754480 541.440007,286.817053 542.359993,286.879355 543.280014,286.941400 544.200000,287.003176 545.119986,287.064693 546.040007,287.125959 546.959993,287.186961 547.880014,287.247717 548.800000,287.308215 549.719986,287.368467 550.640007,287.428473 551.559993,287.488232 552.480014,287.547746 553.400000,287.607025 554.319986,287.666059 555.240007,287.724857 556.159993,287.783422 557.080014,287.841752 558.000000,287.899854 558.000000,287.899854"/>
	<rect fill="rgb(255,255,255)" stroke="none" stroke-opacity="0.7" transform="translate(137, 22.5) translate(0, 0) scale(1,-1)" x="-39" y="-11.5" width="78" height="23"/>
	<polyline fill="none" stroke="rgb(28,108,200)" stroke-width="1" stroke-opacity="1" points="98.000000,23.000000 128.000000,23.000000"/>
	<text fill="rgb(0,0,0)" font-size="11" font-family="Arial" text-anchor="start" dominant-baseline="central" x="133" y="23">v_FC</text>
</svg>
